<mxfile host="Electron" modified="2023-11-19T09:24:07.244Z" agent="Mozilla/5.0 (Windows NT 10.0; Win64; x64) AppleWebKit/537.36 (KHTML, like Gecko) draw.io/22.0.3 Chrome/114.0.5735.289 Electron/25.8.4 Safari/537.36" etag="y8NsCX8AuSBrFALlhGlE" version="22.0.3" type="device">
  <diagram name="Page-1" id="sBSLis2eytxaKDke89t1">
    <mxGraphModel dx="810" dy="473" grid="1" gridSize="10" guides="1" tooltips="1" connect="1" arrows="1" fold="1" page="1" pageScale="1" pageWidth="850" pageHeight="1100" math="0" shadow="0">
      <root>
        <mxCell id="0" />
        <mxCell id="1" parent="0" />
        <mxCell id="3Zso1NhcMANWD2hy53oU-493" value="" style="endArrow=none;dashed=1;html=1;rounded=0;exitX=0;exitY=0.5;exitDx=0;exitDy=0;exitPerimeter=0;entryX=1;entryY=0.5;entryDx=0;entryDy=0;" parent="1" source="3Zso1NhcMANWD2hy53oU-473" target="3Zso1NhcMANWD2hy53oU-472" edge="1">
          <mxGeometry width="50" height="50" relative="1" as="geometry">
            <mxPoint x="146" y="171" as="sourcePoint" />
            <mxPoint x="196" y="121" as="targetPoint" />
          </mxGeometry>
        </mxCell>
        <mxCell id="3Zso1NhcMANWD2hy53oU-495" value="" style="endArrow=none;dashed=1;html=1;rounded=0;exitX=0.5;exitY=1;exitDx=0;exitDy=0;exitPerimeter=0;entryX=1;entryY=0.5;entryDx=0;entryDy=0;" parent="1" source="3Zso1NhcMANWD2hy53oU-494" target="3Zso1NhcMANWD2hy53oU-461" edge="1">
          <mxGeometry width="50" height="50" relative="1" as="geometry">
            <mxPoint x="367" y="178" as="sourcePoint" />
            <mxPoint x="336" y="220" as="targetPoint" />
          </mxGeometry>
        </mxCell>
        <mxCell id="3Zso1NhcMANWD2hy53oU-506" value="" style="endArrow=none;dashed=1;html=1;rounded=0;exitX=0.72;exitY=0.961;exitDx=0;exitDy=0;exitPerimeter=0;entryX=0;entryY=0.25;entryDx=0;entryDy=0;" parent="1" source="3Zso1NhcMANWD2hy53oU-505" target="3Zso1NhcMANWD2hy53oU-471" edge="1">
          <mxGeometry width="50" height="50" relative="1" as="geometry">
            <mxPoint x="461" y="225" as="sourcePoint" />
            <mxPoint x="406" y="331" as="targetPoint" />
          </mxGeometry>
        </mxCell>
        <mxCell id="3Zso1NhcMANWD2hy53oU-117" value="" style="endArrow=open;endFill=1;endSize=12;html=1;rounded=0;fontFamily=Computer Modern;" parent="1" edge="1">
          <mxGeometry width="160" relative="1" as="geometry">
            <mxPoint x="116" y="311" as="sourcePoint" />
            <mxPoint x="737.5" y="311" as="targetPoint" />
          </mxGeometry>
        </mxCell>
        <mxCell id="3Zso1NhcMANWD2hy53oU-118" value="" style="endArrow=open;endFill=1;endSize=12;html=1;rounded=0;fontFamily=Computer Modern;" parent="1" edge="1">
          <mxGeometry width="160" relative="1" as="geometry">
            <mxPoint x="116" y="311" as="sourcePoint" />
            <mxPoint x="116" y="171" as="targetPoint" />
          </mxGeometry>
        </mxCell>
        <mxCell id="3Zso1NhcMANWD2hy53oU-121" value="" style="endArrow=none;html=1;rounded=0;strokeWidth=2;" parent="1" edge="1">
          <mxGeometry width="50" height="50" relative="1" as="geometry">
            <mxPoint x="155" y="230" as="sourcePoint" />
            <mxPoint x="116" y="230" as="targetPoint" />
          </mxGeometry>
        </mxCell>
        <mxCell id="3Zso1NhcMANWD2hy53oU-122" value="" style="endArrow=none;html=1;rounded=0;strokeWidth=2;" parent="1" edge="1">
          <mxGeometry width="50" height="50" relative="1" as="geometry">
            <mxPoint x="155" y="230" as="sourcePoint" />
            <mxPoint x="155" y="250" as="targetPoint" />
          </mxGeometry>
        </mxCell>
        <mxCell id="3Zso1NhcMANWD2hy53oU-123" value="" style="endArrow=none;html=1;rounded=0;strokeWidth=2;" parent="1" edge="1">
          <mxGeometry width="50" height="50" relative="1" as="geometry">
            <mxPoint x="165" y="250" as="sourcePoint" />
            <mxPoint x="155" y="250" as="targetPoint" />
          </mxGeometry>
        </mxCell>
        <mxCell id="3Zso1NhcMANWD2hy53oU-130" value="" style="endArrow=none;html=1;rounded=0;strokeWidth=2;" parent="1" edge="1">
          <mxGeometry width="50" height="50" relative="1" as="geometry">
            <mxPoint x="196" y="290" as="sourcePoint" />
            <mxPoint x="136" y="290" as="targetPoint" />
          </mxGeometry>
        </mxCell>
        <mxCell id="3Zso1NhcMANWD2hy53oU-137" value="" style="endArrow=none;html=1;rounded=0;strokeWidth=2;" parent="1" edge="1">
          <mxGeometry width="50" height="50" relative="1" as="geometry">
            <mxPoint x="196" y="270" as="sourcePoint" />
            <mxPoint x="196" y="290" as="targetPoint" />
          </mxGeometry>
        </mxCell>
        <mxCell id="3Zso1NhcMANWD2hy53oU-138" value="" style="endArrow=none;html=1;rounded=0;strokeWidth=2;" parent="1" edge="1">
          <mxGeometry width="50" height="50" relative="1" as="geometry">
            <mxPoint x="206" y="270" as="sourcePoint" />
            <mxPoint x="196" y="270" as="targetPoint" />
          </mxGeometry>
        </mxCell>
        <mxCell id="3Zso1NhcMANWD2hy53oU-139" value="" style="endArrow=none;html=1;rounded=0;strokeWidth=2;" parent="1" edge="1">
          <mxGeometry width="50" height="50" relative="1" as="geometry">
            <mxPoint x="316" y="270" as="sourcePoint" />
            <mxPoint x="206" y="270" as="targetPoint" />
          </mxGeometry>
        </mxCell>
        <mxCell id="3Zso1NhcMANWD2hy53oU-141" value="" style="endArrow=none;html=1;rounded=0;strokeWidth=2;" parent="1" edge="1">
          <mxGeometry width="50" height="50" relative="1" as="geometry">
            <mxPoint x="216" y="290" as="sourcePoint" />
            <mxPoint x="216" y="290" as="targetPoint" />
          </mxGeometry>
        </mxCell>
        <mxCell id="3Zso1NhcMANWD2hy53oU-142" value="" style="endArrow=none;html=1;rounded=0;strokeWidth=2;" parent="1" edge="1">
          <mxGeometry width="50" height="50" relative="1" as="geometry">
            <mxPoint x="175" y="250" as="sourcePoint" />
            <mxPoint x="165" y="250" as="targetPoint" />
          </mxGeometry>
        </mxCell>
        <mxCell id="3Zso1NhcMANWD2hy53oU-143" value="" style="endArrow=none;html=1;rounded=0;strokeWidth=2;" parent="1" edge="1">
          <mxGeometry width="50" height="50" relative="1" as="geometry">
            <mxPoint x="175" y="230" as="sourcePoint" />
            <mxPoint x="175" y="250" as="targetPoint" />
          </mxGeometry>
        </mxCell>
        <mxCell id="3Zso1NhcMANWD2hy53oU-144" value="" style="endArrow=none;html=1;rounded=0;strokeWidth=2;" parent="1" edge="1">
          <mxGeometry width="50" height="50" relative="1" as="geometry">
            <mxPoint x="185" y="230" as="sourcePoint" />
            <mxPoint x="175" y="230" as="targetPoint" />
          </mxGeometry>
        </mxCell>
        <mxCell id="3Zso1NhcMANWD2hy53oU-145" value="" style="endArrow=none;html=1;rounded=0;strokeWidth=2;" parent="1" edge="1">
          <mxGeometry width="50" height="50" relative="1" as="geometry">
            <mxPoint x="185" y="230" as="sourcePoint" />
            <mxPoint x="185" y="250" as="targetPoint" />
          </mxGeometry>
        </mxCell>
        <mxCell id="3Zso1NhcMANWD2hy53oU-146" value="" style="endArrow=none;html=1;rounded=0;strokeWidth=2;" parent="1" edge="1">
          <mxGeometry width="50" height="50" relative="1" as="geometry">
            <mxPoint x="195" y="250" as="sourcePoint" />
            <mxPoint x="185" y="250" as="targetPoint" />
          </mxGeometry>
        </mxCell>
        <mxCell id="3Zso1NhcMANWD2hy53oU-147" value="" style="endArrow=none;html=1;rounded=0;strokeWidth=2;" parent="1" edge="1">
          <mxGeometry width="50" height="50" relative="1" as="geometry">
            <mxPoint x="205" y="250" as="sourcePoint" />
            <mxPoint x="195" y="250" as="targetPoint" />
          </mxGeometry>
        </mxCell>
        <mxCell id="3Zso1NhcMANWD2hy53oU-148" value="" style="endArrow=none;html=1;rounded=0;strokeWidth=2;" parent="1" edge="1">
          <mxGeometry width="50" height="50" relative="1" as="geometry">
            <mxPoint x="205" y="230" as="sourcePoint" />
            <mxPoint x="205" y="250" as="targetPoint" />
          </mxGeometry>
        </mxCell>
        <mxCell id="3Zso1NhcMANWD2hy53oU-149" value="" style="endArrow=none;html=1;rounded=0;strokeWidth=2;" parent="1" edge="1">
          <mxGeometry width="50" height="50" relative="1" as="geometry">
            <mxPoint x="215" y="230" as="sourcePoint" />
            <mxPoint x="205" y="230" as="targetPoint" />
          </mxGeometry>
        </mxCell>
        <mxCell id="3Zso1NhcMANWD2hy53oU-150" value="" style="endArrow=none;html=1;rounded=0;strokeWidth=2;" parent="1" edge="1">
          <mxGeometry width="50" height="50" relative="1" as="geometry">
            <mxPoint x="215" y="230" as="sourcePoint" />
            <mxPoint x="215" y="250" as="targetPoint" />
          </mxGeometry>
        </mxCell>
        <mxCell id="3Zso1NhcMANWD2hy53oU-151" value="" style="endArrow=none;html=1;rounded=0;strokeWidth=2;" parent="1" edge="1">
          <mxGeometry width="50" height="50" relative="1" as="geometry">
            <mxPoint x="225" y="250" as="sourcePoint" />
            <mxPoint x="215" y="250" as="targetPoint" />
          </mxGeometry>
        </mxCell>
        <mxCell id="3Zso1NhcMANWD2hy53oU-152" value="" style="endArrow=none;html=1;rounded=0;strokeWidth=2;" parent="1" edge="1">
          <mxGeometry width="50" height="50" relative="1" as="geometry">
            <mxPoint x="235" y="250" as="sourcePoint" />
            <mxPoint x="225" y="250" as="targetPoint" />
          </mxGeometry>
        </mxCell>
        <mxCell id="3Zso1NhcMANWD2hy53oU-153" value="" style="endArrow=none;html=1;rounded=0;strokeWidth=2;" parent="1" edge="1">
          <mxGeometry width="50" height="50" relative="1" as="geometry">
            <mxPoint x="235" y="230" as="sourcePoint" />
            <mxPoint x="235" y="250" as="targetPoint" />
          </mxGeometry>
        </mxCell>
        <mxCell id="3Zso1NhcMANWD2hy53oU-154" value="" style="endArrow=none;html=1;rounded=0;strokeWidth=2;" parent="1" edge="1">
          <mxGeometry width="50" height="50" relative="1" as="geometry">
            <mxPoint x="245" y="230" as="sourcePoint" />
            <mxPoint x="235" y="230" as="targetPoint" />
          </mxGeometry>
        </mxCell>
        <mxCell id="3Zso1NhcMANWD2hy53oU-155" value="" style="endArrow=none;html=1;rounded=0;strokeWidth=2;" parent="1" edge="1">
          <mxGeometry width="50" height="50" relative="1" as="geometry">
            <mxPoint x="245" y="230" as="sourcePoint" />
            <mxPoint x="245" y="250" as="targetPoint" />
          </mxGeometry>
        </mxCell>
        <mxCell id="3Zso1NhcMANWD2hy53oU-156" value="" style="endArrow=none;html=1;rounded=0;strokeWidth=2;" parent="1" edge="1">
          <mxGeometry width="50" height="50" relative="1" as="geometry">
            <mxPoint x="255" y="250" as="sourcePoint" />
            <mxPoint x="245" y="250" as="targetPoint" />
          </mxGeometry>
        </mxCell>
        <mxCell id="3Zso1NhcMANWD2hy53oU-157" value="" style="endArrow=none;html=1;rounded=0;strokeWidth=2;" parent="1" edge="1">
          <mxGeometry width="50" height="50" relative="1" as="geometry">
            <mxPoint x="265" y="250" as="sourcePoint" />
            <mxPoint x="255" y="250" as="targetPoint" />
          </mxGeometry>
        </mxCell>
        <mxCell id="3Zso1NhcMANWD2hy53oU-158" value="" style="endArrow=none;html=1;rounded=0;strokeWidth=2;" parent="1" edge="1">
          <mxGeometry width="50" height="50" relative="1" as="geometry">
            <mxPoint x="265" y="230" as="sourcePoint" />
            <mxPoint x="265" y="250" as="targetPoint" />
          </mxGeometry>
        </mxCell>
        <mxCell id="3Zso1NhcMANWD2hy53oU-159" value="" style="endArrow=none;html=1;rounded=0;strokeWidth=2;" parent="1" edge="1">
          <mxGeometry width="50" height="50" relative="1" as="geometry">
            <mxPoint x="275" y="230" as="sourcePoint" />
            <mxPoint x="265" y="230" as="targetPoint" />
          </mxGeometry>
        </mxCell>
        <mxCell id="3Zso1NhcMANWD2hy53oU-160" value="" style="endArrow=none;html=1;rounded=0;strokeWidth=2;" parent="1" edge="1">
          <mxGeometry width="50" height="50" relative="1" as="geometry">
            <mxPoint x="275" y="230" as="sourcePoint" />
            <mxPoint x="275" y="250" as="targetPoint" />
          </mxGeometry>
        </mxCell>
        <mxCell id="3Zso1NhcMANWD2hy53oU-161" value="" style="endArrow=none;html=1;rounded=0;strokeWidth=2;" parent="1" edge="1">
          <mxGeometry width="50" height="50" relative="1" as="geometry">
            <mxPoint x="285" y="250" as="sourcePoint" />
            <mxPoint x="275" y="250" as="targetPoint" />
          </mxGeometry>
        </mxCell>
        <mxCell id="3Zso1NhcMANWD2hy53oU-162" value="" style="endArrow=none;html=1;rounded=0;strokeWidth=2;" parent="1" edge="1">
          <mxGeometry width="50" height="50" relative="1" as="geometry">
            <mxPoint x="295" y="250" as="sourcePoint" />
            <mxPoint x="285" y="250" as="targetPoint" />
          </mxGeometry>
        </mxCell>
        <mxCell id="3Zso1NhcMANWD2hy53oU-163" value="" style="endArrow=none;html=1;rounded=0;strokeWidth=2;" parent="1" edge="1">
          <mxGeometry width="50" height="50" relative="1" as="geometry">
            <mxPoint x="295" y="230" as="sourcePoint" />
            <mxPoint x="295" y="250" as="targetPoint" />
          </mxGeometry>
        </mxCell>
        <mxCell id="3Zso1NhcMANWD2hy53oU-164" value="" style="endArrow=none;html=1;rounded=0;strokeWidth=2;" parent="1" edge="1">
          <mxGeometry width="50" height="50" relative="1" as="geometry">
            <mxPoint x="305" y="230" as="sourcePoint" />
            <mxPoint x="295" y="230" as="targetPoint" />
          </mxGeometry>
        </mxCell>
        <mxCell id="3Zso1NhcMANWD2hy53oU-165" value="" style="endArrow=none;html=1;rounded=0;strokeWidth=2;" parent="1" edge="1">
          <mxGeometry width="50" height="50" relative="1" as="geometry">
            <mxPoint x="305" y="230" as="sourcePoint" />
            <mxPoint x="305" y="250" as="targetPoint" />
          </mxGeometry>
        </mxCell>
        <mxCell id="3Zso1NhcMANWD2hy53oU-166" value="" style="endArrow=none;html=1;rounded=0;strokeWidth=2;" parent="1" edge="1">
          <mxGeometry width="50" height="50" relative="1" as="geometry">
            <mxPoint x="315" y="250" as="sourcePoint" />
            <mxPoint x="305" y="250" as="targetPoint" />
          </mxGeometry>
        </mxCell>
        <mxCell id="3Zso1NhcMANWD2hy53oU-167" value="" style="endArrow=none;html=1;rounded=0;strokeWidth=2;" parent="1" edge="1">
          <mxGeometry width="50" height="50" relative="1" as="geometry">
            <mxPoint x="325" y="250" as="sourcePoint" />
            <mxPoint x="315" y="250" as="targetPoint" />
          </mxGeometry>
        </mxCell>
        <mxCell id="3Zso1NhcMANWD2hy53oU-168" value="" style="endArrow=none;html=1;rounded=0;strokeWidth=2;" parent="1" edge="1">
          <mxGeometry width="50" height="50" relative="1" as="geometry">
            <mxPoint x="325" y="230" as="sourcePoint" />
            <mxPoint x="325" y="250" as="targetPoint" />
          </mxGeometry>
        </mxCell>
        <mxCell id="3Zso1NhcMANWD2hy53oU-169" value="" style="endArrow=none;html=1;rounded=0;strokeWidth=2;" parent="1" edge="1">
          <mxGeometry width="50" height="50" relative="1" as="geometry">
            <mxPoint x="335" y="230" as="sourcePoint" />
            <mxPoint x="325" y="230" as="targetPoint" />
          </mxGeometry>
        </mxCell>
        <mxCell id="3Zso1NhcMANWD2hy53oU-170" value="" style="endArrow=none;html=1;rounded=0;strokeWidth=2;" parent="1" edge="1">
          <mxGeometry width="50" height="50" relative="1" as="geometry">
            <mxPoint x="335" y="230" as="sourcePoint" />
            <mxPoint x="335" y="250" as="targetPoint" />
          </mxGeometry>
        </mxCell>
        <mxCell id="3Zso1NhcMANWD2hy53oU-171" value="" style="endArrow=none;html=1;rounded=0;strokeWidth=2;" parent="1" edge="1">
          <mxGeometry width="50" height="50" relative="1" as="geometry">
            <mxPoint x="345" y="250" as="sourcePoint" />
            <mxPoint x="335" y="250" as="targetPoint" />
          </mxGeometry>
        </mxCell>
        <mxCell id="3Zso1NhcMANWD2hy53oU-172" value="" style="endArrow=none;html=1;rounded=0;strokeWidth=2;" parent="1" edge="1">
          <mxGeometry width="50" height="50" relative="1" as="geometry">
            <mxPoint x="355" y="250" as="sourcePoint" />
            <mxPoint x="345" y="250" as="targetPoint" />
          </mxGeometry>
        </mxCell>
        <mxCell id="3Zso1NhcMANWD2hy53oU-173" value="" style="endArrow=none;html=1;rounded=0;strokeWidth=2;" parent="1" edge="1">
          <mxGeometry width="50" height="50" relative="1" as="geometry">
            <mxPoint x="355" y="230" as="sourcePoint" />
            <mxPoint x="355" y="250" as="targetPoint" />
          </mxGeometry>
        </mxCell>
        <mxCell id="3Zso1NhcMANWD2hy53oU-174" value="" style="endArrow=none;html=1;rounded=0;strokeWidth=2;" parent="1" edge="1">
          <mxGeometry width="50" height="50" relative="1" as="geometry">
            <mxPoint x="365" y="230" as="sourcePoint" />
            <mxPoint x="355" y="230" as="targetPoint" />
          </mxGeometry>
        </mxCell>
        <mxCell id="3Zso1NhcMANWD2hy53oU-175" value="" style="endArrow=none;html=1;rounded=0;strokeWidth=2;" parent="1" edge="1">
          <mxGeometry width="50" height="50" relative="1" as="geometry">
            <mxPoint x="365" y="230" as="sourcePoint" />
            <mxPoint x="365" y="250" as="targetPoint" />
          </mxGeometry>
        </mxCell>
        <mxCell id="3Zso1NhcMANWD2hy53oU-176" value="" style="endArrow=none;html=1;rounded=0;strokeWidth=2;" parent="1" edge="1">
          <mxGeometry width="50" height="50" relative="1" as="geometry">
            <mxPoint x="375" y="250" as="sourcePoint" />
            <mxPoint x="365" y="250" as="targetPoint" />
          </mxGeometry>
        </mxCell>
        <mxCell id="3Zso1NhcMANWD2hy53oU-177" value="" style="endArrow=none;html=1;rounded=0;strokeWidth=2;" parent="1" edge="1">
          <mxGeometry width="50" height="50" relative="1" as="geometry">
            <mxPoint x="385" y="250" as="sourcePoint" />
            <mxPoint x="375" y="250" as="targetPoint" />
          </mxGeometry>
        </mxCell>
        <mxCell id="3Zso1NhcMANWD2hy53oU-178" value="" style="endArrow=none;html=1;rounded=0;strokeWidth=2;" parent="1" edge="1">
          <mxGeometry width="50" height="50" relative="1" as="geometry">
            <mxPoint x="385" y="230" as="sourcePoint" />
            <mxPoint x="385" y="250" as="targetPoint" />
          </mxGeometry>
        </mxCell>
        <mxCell id="3Zso1NhcMANWD2hy53oU-179" value="" style="endArrow=none;html=1;rounded=0;strokeWidth=2;" parent="1" edge="1">
          <mxGeometry width="50" height="50" relative="1" as="geometry">
            <mxPoint x="395" y="230" as="sourcePoint" />
            <mxPoint x="385" y="230" as="targetPoint" />
          </mxGeometry>
        </mxCell>
        <mxCell id="3Zso1NhcMANWD2hy53oU-180" value="" style="endArrow=none;html=1;rounded=0;strokeWidth=2;" parent="1" edge="1">
          <mxGeometry width="50" height="50" relative="1" as="geometry">
            <mxPoint x="395" y="230" as="sourcePoint" />
            <mxPoint x="395" y="250" as="targetPoint" />
          </mxGeometry>
        </mxCell>
        <mxCell id="3Zso1NhcMANWD2hy53oU-181" value="" style="endArrow=none;html=1;rounded=0;strokeWidth=2;" parent="1" edge="1">
          <mxGeometry width="50" height="50" relative="1" as="geometry">
            <mxPoint x="405" y="250" as="sourcePoint" />
            <mxPoint x="395" y="250" as="targetPoint" />
          </mxGeometry>
        </mxCell>
        <mxCell id="3Zso1NhcMANWD2hy53oU-182" value="" style="endArrow=none;html=1;rounded=0;strokeWidth=2;" parent="1" edge="1">
          <mxGeometry width="50" height="50" relative="1" as="geometry">
            <mxPoint x="415" y="250" as="sourcePoint" />
            <mxPoint x="405" y="250" as="targetPoint" />
          </mxGeometry>
        </mxCell>
        <mxCell id="3Zso1NhcMANWD2hy53oU-183" value="" style="endArrow=none;html=1;rounded=0;strokeWidth=2;" parent="1" edge="1">
          <mxGeometry width="50" height="50" relative="1" as="geometry">
            <mxPoint x="415" y="230" as="sourcePoint" />
            <mxPoint x="415" y="250" as="targetPoint" />
          </mxGeometry>
        </mxCell>
        <mxCell id="3Zso1NhcMANWD2hy53oU-184" value="" style="endArrow=none;html=1;rounded=0;strokeWidth=2;" parent="1" edge="1">
          <mxGeometry width="50" height="50" relative="1" as="geometry">
            <mxPoint x="425" y="230" as="sourcePoint" />
            <mxPoint x="415" y="230" as="targetPoint" />
          </mxGeometry>
        </mxCell>
        <mxCell id="3Zso1NhcMANWD2hy53oU-185" value="" style="endArrow=none;html=1;rounded=0;strokeWidth=2;" parent="1" edge="1">
          <mxGeometry width="50" height="50" relative="1" as="geometry">
            <mxPoint x="425" y="230" as="sourcePoint" />
            <mxPoint x="425" y="250" as="targetPoint" />
          </mxGeometry>
        </mxCell>
        <mxCell id="3Zso1NhcMANWD2hy53oU-186" value="" style="endArrow=none;html=1;rounded=0;strokeWidth=2;" parent="1" edge="1">
          <mxGeometry width="50" height="50" relative="1" as="geometry">
            <mxPoint x="435" y="250" as="sourcePoint" />
            <mxPoint x="425" y="250" as="targetPoint" />
          </mxGeometry>
        </mxCell>
        <mxCell id="3Zso1NhcMANWD2hy53oU-187" value="" style="endArrow=none;html=1;rounded=0;strokeWidth=2;" parent="1" edge="1">
          <mxGeometry width="50" height="50" relative="1" as="geometry">
            <mxPoint x="445" y="250" as="sourcePoint" />
            <mxPoint x="435" y="250" as="targetPoint" />
          </mxGeometry>
        </mxCell>
        <mxCell id="3Zso1NhcMANWD2hy53oU-188" value="" style="endArrow=none;html=1;rounded=0;strokeWidth=2;" parent="1" edge="1">
          <mxGeometry width="50" height="50" relative="1" as="geometry">
            <mxPoint x="445" y="230" as="sourcePoint" />
            <mxPoint x="445" y="250" as="targetPoint" />
          </mxGeometry>
        </mxCell>
        <mxCell id="3Zso1NhcMANWD2hy53oU-189" value="" style="endArrow=none;html=1;rounded=0;strokeWidth=2;" parent="1" edge="1">
          <mxGeometry width="50" height="50" relative="1" as="geometry">
            <mxPoint x="455" y="230" as="sourcePoint" />
            <mxPoint x="445" y="230" as="targetPoint" />
          </mxGeometry>
        </mxCell>
        <mxCell id="3Zso1NhcMANWD2hy53oU-190" value="" style="endArrow=none;html=1;rounded=0;strokeWidth=2;" parent="1" edge="1">
          <mxGeometry width="50" height="50" relative="1" as="geometry">
            <mxPoint x="455" y="230" as="sourcePoint" />
            <mxPoint x="455" y="250" as="targetPoint" />
          </mxGeometry>
        </mxCell>
        <mxCell id="3Zso1NhcMANWD2hy53oU-191" value="" style="endArrow=none;html=1;rounded=0;strokeWidth=2;" parent="1" edge="1">
          <mxGeometry width="50" height="50" relative="1" as="geometry">
            <mxPoint x="465" y="250" as="sourcePoint" />
            <mxPoint x="455" y="250" as="targetPoint" />
          </mxGeometry>
        </mxCell>
        <mxCell id="3Zso1NhcMANWD2hy53oU-192" value="" style="endArrow=none;html=1;rounded=0;strokeWidth=2;" parent="1" edge="1">
          <mxGeometry width="50" height="50" relative="1" as="geometry">
            <mxPoint x="475" y="250" as="sourcePoint" />
            <mxPoint x="465" y="250" as="targetPoint" />
          </mxGeometry>
        </mxCell>
        <mxCell id="3Zso1NhcMANWD2hy53oU-193" value="" style="endArrow=none;html=1;rounded=0;strokeWidth=2;" parent="1" edge="1">
          <mxGeometry width="50" height="50" relative="1" as="geometry">
            <mxPoint x="475" y="230" as="sourcePoint" />
            <mxPoint x="475" y="250" as="targetPoint" />
          </mxGeometry>
        </mxCell>
        <mxCell id="3Zso1NhcMANWD2hy53oU-194" value="" style="endArrow=none;html=1;rounded=0;strokeWidth=2;" parent="1" edge="1">
          <mxGeometry width="50" height="50" relative="1" as="geometry">
            <mxPoint x="485" y="230" as="sourcePoint" />
            <mxPoint x="475" y="230" as="targetPoint" />
          </mxGeometry>
        </mxCell>
        <mxCell id="3Zso1NhcMANWD2hy53oU-195" value="" style="endArrow=none;html=1;rounded=0;strokeWidth=2;" parent="1" edge="1">
          <mxGeometry width="50" height="50" relative="1" as="geometry">
            <mxPoint x="485" y="230" as="sourcePoint" />
            <mxPoint x="485" y="250" as="targetPoint" />
          </mxGeometry>
        </mxCell>
        <mxCell id="3Zso1NhcMANWD2hy53oU-196" value="" style="endArrow=none;html=1;rounded=0;strokeWidth=2;" parent="1" edge="1">
          <mxGeometry width="50" height="50" relative="1" as="geometry">
            <mxPoint x="495" y="250" as="sourcePoint" />
            <mxPoint x="485" y="250" as="targetPoint" />
          </mxGeometry>
        </mxCell>
        <mxCell id="3Zso1NhcMANWD2hy53oU-197" value="" style="endArrow=none;html=1;rounded=0;strokeWidth=2;" parent="1" edge="1">
          <mxGeometry width="50" height="50" relative="1" as="geometry">
            <mxPoint x="505" y="250" as="sourcePoint" />
            <mxPoint x="495" y="250" as="targetPoint" />
          </mxGeometry>
        </mxCell>
        <mxCell id="3Zso1NhcMANWD2hy53oU-198" value="" style="endArrow=none;html=1;rounded=0;strokeWidth=2;" parent="1" edge="1">
          <mxGeometry width="50" height="50" relative="1" as="geometry">
            <mxPoint x="505" y="230" as="sourcePoint" />
            <mxPoint x="505" y="250" as="targetPoint" />
          </mxGeometry>
        </mxCell>
        <mxCell id="3Zso1NhcMANWD2hy53oU-199" value="" style="endArrow=none;html=1;rounded=0;strokeWidth=2;" parent="1" edge="1">
          <mxGeometry width="50" height="50" relative="1" as="geometry">
            <mxPoint x="515" y="230" as="sourcePoint" />
            <mxPoint x="505" y="230" as="targetPoint" />
          </mxGeometry>
        </mxCell>
        <mxCell id="3Zso1NhcMANWD2hy53oU-200" value="" style="endArrow=none;html=1;rounded=0;strokeWidth=2;" parent="1" edge="1">
          <mxGeometry width="50" height="50" relative="1" as="geometry">
            <mxPoint x="515" y="230" as="sourcePoint" />
            <mxPoint x="515" y="250" as="targetPoint" />
          </mxGeometry>
        </mxCell>
        <mxCell id="3Zso1NhcMANWD2hy53oU-201" value="" style="endArrow=none;html=1;rounded=0;strokeWidth=2;" parent="1" edge="1">
          <mxGeometry width="50" height="50" relative="1" as="geometry">
            <mxPoint x="525" y="250" as="sourcePoint" />
            <mxPoint x="515" y="250" as="targetPoint" />
          </mxGeometry>
        </mxCell>
        <mxCell id="3Zso1NhcMANWD2hy53oU-202" value="" style="endArrow=none;html=1;rounded=0;strokeWidth=2;" parent="1" edge="1">
          <mxGeometry width="50" height="50" relative="1" as="geometry">
            <mxPoint x="535" y="250" as="sourcePoint" />
            <mxPoint x="525" y="250" as="targetPoint" />
          </mxGeometry>
        </mxCell>
        <mxCell id="3Zso1NhcMANWD2hy53oU-203" value="" style="endArrow=none;html=1;rounded=0;strokeWidth=2;" parent="1" edge="1">
          <mxGeometry width="50" height="50" relative="1" as="geometry">
            <mxPoint x="535" y="230" as="sourcePoint" />
            <mxPoint x="535" y="250" as="targetPoint" />
          </mxGeometry>
        </mxCell>
        <mxCell id="3Zso1NhcMANWD2hy53oU-204" value="" style="endArrow=none;html=1;rounded=0;strokeWidth=2;" parent="1" edge="1">
          <mxGeometry width="50" height="50" relative="1" as="geometry">
            <mxPoint x="545" y="230" as="sourcePoint" />
            <mxPoint x="535" y="230" as="targetPoint" />
          </mxGeometry>
        </mxCell>
        <mxCell id="3Zso1NhcMANWD2hy53oU-205" value="" style="endArrow=none;html=1;rounded=0;strokeWidth=2;" parent="1" edge="1">
          <mxGeometry width="50" height="50" relative="1" as="geometry">
            <mxPoint x="545" y="230" as="sourcePoint" />
            <mxPoint x="545" y="250" as="targetPoint" />
          </mxGeometry>
        </mxCell>
        <mxCell id="3Zso1NhcMANWD2hy53oU-206" value="" style="endArrow=none;html=1;rounded=0;strokeWidth=2;" parent="1" edge="1">
          <mxGeometry width="50" height="50" relative="1" as="geometry">
            <mxPoint x="555" y="250" as="sourcePoint" />
            <mxPoint x="545" y="250" as="targetPoint" />
          </mxGeometry>
        </mxCell>
        <mxCell id="3Zso1NhcMANWD2hy53oU-207" value="" style="endArrow=none;html=1;rounded=0;strokeWidth=2;" parent="1" edge="1">
          <mxGeometry width="50" height="50" relative="1" as="geometry">
            <mxPoint x="565" y="250" as="sourcePoint" />
            <mxPoint x="555" y="250" as="targetPoint" />
          </mxGeometry>
        </mxCell>
        <mxCell id="3Zso1NhcMANWD2hy53oU-208" value="" style="endArrow=none;html=1;rounded=0;strokeWidth=2;" parent="1" edge="1">
          <mxGeometry width="50" height="50" relative="1" as="geometry">
            <mxPoint x="565" y="230" as="sourcePoint" />
            <mxPoint x="565" y="250" as="targetPoint" />
          </mxGeometry>
        </mxCell>
        <mxCell id="3Zso1NhcMANWD2hy53oU-209" value="" style="endArrow=none;html=1;rounded=0;strokeWidth=2;" parent="1" edge="1">
          <mxGeometry width="50" height="50" relative="1" as="geometry">
            <mxPoint x="575" y="230" as="sourcePoint" />
            <mxPoint x="565" y="230" as="targetPoint" />
          </mxGeometry>
        </mxCell>
        <mxCell id="3Zso1NhcMANWD2hy53oU-210" value="" style="endArrow=none;html=1;rounded=0;strokeWidth=2;" parent="1" edge="1">
          <mxGeometry width="50" height="50" relative="1" as="geometry">
            <mxPoint x="575" y="230" as="sourcePoint" />
            <mxPoint x="575" y="250" as="targetPoint" />
          </mxGeometry>
        </mxCell>
        <mxCell id="3Zso1NhcMANWD2hy53oU-211" value="" style="endArrow=none;html=1;rounded=0;strokeWidth=2;" parent="1" edge="1">
          <mxGeometry width="50" height="50" relative="1" as="geometry">
            <mxPoint x="585" y="250" as="sourcePoint" />
            <mxPoint x="575" y="250" as="targetPoint" />
          </mxGeometry>
        </mxCell>
        <mxCell id="3Zso1NhcMANWD2hy53oU-212" value="" style="endArrow=none;html=1;rounded=0;strokeWidth=2;" parent="1" edge="1">
          <mxGeometry width="50" height="50" relative="1" as="geometry">
            <mxPoint x="595" y="250" as="sourcePoint" />
            <mxPoint x="585" y="250" as="targetPoint" />
          </mxGeometry>
        </mxCell>
        <mxCell id="3Zso1NhcMANWD2hy53oU-213" value="" style="endArrow=none;html=1;rounded=0;strokeWidth=2;" parent="1" edge="1">
          <mxGeometry width="50" height="50" relative="1" as="geometry">
            <mxPoint x="595" y="230" as="sourcePoint" />
            <mxPoint x="595" y="250" as="targetPoint" />
          </mxGeometry>
        </mxCell>
        <mxCell id="3Zso1NhcMANWD2hy53oU-214" value="" style="endArrow=none;html=1;rounded=0;strokeWidth=2;" parent="1" edge="1">
          <mxGeometry width="50" height="50" relative="1" as="geometry">
            <mxPoint x="605" y="230" as="sourcePoint" />
            <mxPoint x="595" y="230" as="targetPoint" />
          </mxGeometry>
        </mxCell>
        <mxCell id="3Zso1NhcMANWD2hy53oU-215" value="" style="endArrow=none;html=1;rounded=0;strokeWidth=2;" parent="1" edge="1">
          <mxGeometry width="50" height="50" relative="1" as="geometry">
            <mxPoint x="605" y="230" as="sourcePoint" />
            <mxPoint x="605" y="250" as="targetPoint" />
          </mxGeometry>
        </mxCell>
        <mxCell id="3Zso1NhcMANWD2hy53oU-216" value="" style="endArrow=none;html=1;rounded=0;strokeWidth=2;" parent="1" edge="1">
          <mxGeometry width="50" height="50" relative="1" as="geometry">
            <mxPoint x="625" y="250" as="sourcePoint" />
            <mxPoint x="605" y="250" as="targetPoint" />
          </mxGeometry>
        </mxCell>
        <mxCell id="3Zso1NhcMANWD2hy53oU-218" value="" style="endArrow=none;html=1;rounded=0;strokeWidth=2;" parent="1" edge="1">
          <mxGeometry width="50" height="50" relative="1" as="geometry">
            <mxPoint x="136" y="270" as="sourcePoint" />
            <mxPoint x="116" y="270" as="targetPoint" />
          </mxGeometry>
        </mxCell>
        <mxCell id="3Zso1NhcMANWD2hy53oU-219" value="" style="endArrow=none;html=1;rounded=0;strokeWidth=2;" parent="1" edge="1">
          <mxGeometry width="50" height="50" relative="1" as="geometry">
            <mxPoint x="136" y="270" as="sourcePoint" />
            <mxPoint x="136" y="290" as="targetPoint" />
          </mxGeometry>
        </mxCell>
        <mxCell id="3Zso1NhcMANWD2hy53oU-235" value="" style="endArrow=none;html=1;rounded=0;strokeWidth=2;" parent="1" edge="1">
          <mxGeometry width="50" height="50" relative="1" as="geometry">
            <mxPoint x="226" y="290" as="sourcePoint" />
            <mxPoint x="226" y="290" as="targetPoint" />
          </mxGeometry>
        </mxCell>
        <mxCell id="3Zso1NhcMANWD2hy53oU-238" value="" style="endArrow=none;html=1;rounded=0;strokeWidth=2;" parent="1" edge="1">
          <mxGeometry width="50" height="50" relative="1" as="geometry">
            <mxPoint x="706" y="290" as="sourcePoint" />
            <mxPoint x="316" y="290" as="targetPoint" />
          </mxGeometry>
        </mxCell>
        <mxCell id="3Zso1NhcMANWD2hy53oU-252" value="" style="endArrow=none;html=1;rounded=0;strokeWidth=2;" parent="1" edge="1">
          <mxGeometry width="50" height="50" relative="1" as="geometry">
            <mxPoint x="625" y="230" as="sourcePoint" />
            <mxPoint x="625" y="250" as="targetPoint" />
          </mxGeometry>
        </mxCell>
        <mxCell id="3Zso1NhcMANWD2hy53oU-253" value="" style="endArrow=none;html=1;rounded=0;strokeWidth=2;" parent="1" edge="1">
          <mxGeometry width="50" height="50" relative="1" as="geometry">
            <mxPoint x="635" y="230" as="sourcePoint" />
            <mxPoint x="625" y="230" as="targetPoint" />
          </mxGeometry>
        </mxCell>
        <mxCell id="3Zso1NhcMANWD2hy53oU-254" value="" style="endArrow=none;html=1;rounded=0;strokeWidth=2;" parent="1" edge="1">
          <mxGeometry width="50" height="50" relative="1" as="geometry">
            <mxPoint x="635" y="230" as="sourcePoint" />
            <mxPoint x="635" y="250" as="targetPoint" />
          </mxGeometry>
        </mxCell>
        <mxCell id="3Zso1NhcMANWD2hy53oU-255" value="" style="endArrow=none;html=1;rounded=0;strokeWidth=2;" parent="1" edge="1">
          <mxGeometry width="50" height="50" relative="1" as="geometry">
            <mxPoint x="645" y="250" as="sourcePoint" />
            <mxPoint x="635" y="250" as="targetPoint" />
          </mxGeometry>
        </mxCell>
        <mxCell id="3Zso1NhcMANWD2hy53oU-256" value="" style="endArrow=none;html=1;rounded=0;strokeWidth=2;" parent="1" edge="1">
          <mxGeometry width="50" height="50" relative="1" as="geometry">
            <mxPoint x="655" y="250" as="sourcePoint" />
            <mxPoint x="645" y="250" as="targetPoint" />
          </mxGeometry>
        </mxCell>
        <mxCell id="3Zso1NhcMANWD2hy53oU-257" value="" style="endArrow=none;html=1;rounded=0;strokeWidth=2;" parent="1" edge="1">
          <mxGeometry width="50" height="50" relative="1" as="geometry">
            <mxPoint x="655" y="230" as="sourcePoint" />
            <mxPoint x="655" y="250" as="targetPoint" />
          </mxGeometry>
        </mxCell>
        <mxCell id="3Zso1NhcMANWD2hy53oU-258" value="" style="endArrow=none;html=1;rounded=0;strokeWidth=2;" parent="1" edge="1">
          <mxGeometry width="50" height="50" relative="1" as="geometry">
            <mxPoint x="665" y="230" as="sourcePoint" />
            <mxPoint x="655" y="230" as="targetPoint" />
          </mxGeometry>
        </mxCell>
        <mxCell id="3Zso1NhcMANWD2hy53oU-259" value="" style="endArrow=none;html=1;rounded=0;strokeWidth=2;" parent="1" edge="1">
          <mxGeometry width="50" height="50" relative="1" as="geometry">
            <mxPoint x="665" y="230" as="sourcePoint" />
            <mxPoint x="665" y="250" as="targetPoint" />
          </mxGeometry>
        </mxCell>
        <mxCell id="3Zso1NhcMANWD2hy53oU-260" value="" style="endArrow=none;html=1;rounded=0;strokeWidth=2;" parent="1" edge="1">
          <mxGeometry width="50" height="50" relative="1" as="geometry">
            <mxPoint x="675" y="250" as="sourcePoint" />
            <mxPoint x="665" y="250" as="targetPoint" />
          </mxGeometry>
        </mxCell>
        <mxCell id="3Zso1NhcMANWD2hy53oU-261" value="" style="endArrow=none;html=1;rounded=0;strokeWidth=2;" parent="1" edge="1">
          <mxGeometry width="50" height="50" relative="1" as="geometry">
            <mxPoint x="685" y="250" as="sourcePoint" />
            <mxPoint x="675" y="250" as="targetPoint" />
          </mxGeometry>
        </mxCell>
        <mxCell id="3Zso1NhcMANWD2hy53oU-262" value="" style="endArrow=none;html=1;rounded=0;strokeWidth=2;" parent="1" edge="1">
          <mxGeometry width="50" height="50" relative="1" as="geometry">
            <mxPoint x="685" y="230" as="sourcePoint" />
            <mxPoint x="685" y="250" as="targetPoint" />
          </mxGeometry>
        </mxCell>
        <mxCell id="3Zso1NhcMANWD2hy53oU-263" value="" style="endArrow=none;html=1;rounded=0;strokeWidth=2;" parent="1" edge="1">
          <mxGeometry width="50" height="50" relative="1" as="geometry">
            <mxPoint x="695" y="230" as="sourcePoint" />
            <mxPoint x="685" y="230" as="targetPoint" />
          </mxGeometry>
        </mxCell>
        <mxCell id="3Zso1NhcMANWD2hy53oU-264" value="" style="endArrow=none;html=1;rounded=0;strokeWidth=2;" parent="1" edge="1">
          <mxGeometry width="50" height="50" relative="1" as="geometry">
            <mxPoint x="695" y="230" as="sourcePoint" />
            <mxPoint x="695" y="250" as="targetPoint" />
          </mxGeometry>
        </mxCell>
        <mxCell id="3Zso1NhcMANWD2hy53oU-265" value="" style="endArrow=none;html=1;rounded=0;strokeWidth=2;" parent="1" edge="1">
          <mxGeometry width="50" height="50" relative="1" as="geometry">
            <mxPoint x="705" y="250" as="sourcePoint" />
            <mxPoint x="695" y="250" as="targetPoint" />
          </mxGeometry>
        </mxCell>
        <mxCell id="3Zso1NhcMANWD2hy53oU-280" value="" style="endArrow=open;endFill=1;endSize=12;html=1;rounded=0;fontFamily=Computer Modern;" parent="1" edge="1">
          <mxGeometry width="160" relative="1" as="geometry">
            <mxPoint x="231" y="555.38" as="sourcePoint" />
            <mxPoint x="610" y="555.38" as="targetPoint" />
          </mxGeometry>
        </mxCell>
        <mxCell id="3Zso1NhcMANWD2hy53oU-281" value="" style="endArrow=open;endFill=1;endSize=12;html=1;rounded=0;fontFamily=Computer Modern;" parent="1" edge="1">
          <mxGeometry width="160" relative="1" as="geometry">
            <mxPoint x="231" y="555.38" as="sourcePoint" />
            <mxPoint x="231" y="433.38" as="targetPoint" />
          </mxGeometry>
        </mxCell>
        <mxCell id="3Zso1NhcMANWD2hy53oU-284" value="" style="endArrow=none;html=1;rounded=0;strokeWidth=2;" parent="1" edge="1">
          <mxGeometry width="50" height="50" relative="1" as="geometry">
            <mxPoint x="251" y="492.38" as="sourcePoint" />
            <mxPoint x="231" y="492.38" as="targetPoint" />
          </mxGeometry>
        </mxCell>
        <mxCell id="3Zso1NhcMANWD2hy53oU-291" value="" style="endArrow=none;html=1;rounded=0;strokeWidth=2;" parent="1" edge="1">
          <mxGeometry width="50" height="50" relative="1" as="geometry">
            <mxPoint x="261" y="492.38" as="sourcePoint" />
            <mxPoint x="251" y="492.38" as="targetPoint" />
          </mxGeometry>
        </mxCell>
        <mxCell id="3Zso1NhcMANWD2hy53oU-292" value="" style="endArrow=none;html=1;rounded=0;strokeWidth=2;" parent="1" edge="1">
          <mxGeometry width="50" height="50" relative="1" as="geometry">
            <mxPoint x="261" y="472.38" as="sourcePoint" />
            <mxPoint x="261" y="492.38" as="targetPoint" />
          </mxGeometry>
        </mxCell>
        <mxCell id="3Zso1NhcMANWD2hy53oU-293" value="" style="endArrow=none;html=1;rounded=0;strokeWidth=2;" parent="1" edge="1">
          <mxGeometry width="50" height="50" relative="1" as="geometry">
            <mxPoint x="271" y="472.38" as="sourcePoint" />
            <mxPoint x="261" y="472.38" as="targetPoint" />
          </mxGeometry>
        </mxCell>
        <mxCell id="3Zso1NhcMANWD2hy53oU-294" value="" style="endArrow=none;html=1;rounded=0;strokeWidth=2;" parent="1" edge="1">
          <mxGeometry width="50" height="50" relative="1" as="geometry">
            <mxPoint x="271" y="472.38" as="sourcePoint" />
            <mxPoint x="271" y="492.38" as="targetPoint" />
          </mxGeometry>
        </mxCell>
        <mxCell id="3Zso1NhcMANWD2hy53oU-295" value="" style="endArrow=none;html=1;rounded=0;strokeWidth=2;" parent="1" edge="1">
          <mxGeometry width="50" height="50" relative="1" as="geometry">
            <mxPoint x="281" y="492.38" as="sourcePoint" />
            <mxPoint x="271" y="492.38" as="targetPoint" />
          </mxGeometry>
        </mxCell>
        <mxCell id="3Zso1NhcMANWD2hy53oU-296" value="" style="endArrow=none;html=1;rounded=0;strokeWidth=2;" parent="1" edge="1">
          <mxGeometry width="50" height="50" relative="1" as="geometry">
            <mxPoint x="291" y="492.38" as="sourcePoint" />
            <mxPoint x="281" y="492.38" as="targetPoint" />
          </mxGeometry>
        </mxCell>
        <mxCell id="3Zso1NhcMANWD2hy53oU-297" value="" style="endArrow=none;html=1;rounded=0;strokeWidth=2;" parent="1" edge="1">
          <mxGeometry width="50" height="50" relative="1" as="geometry">
            <mxPoint x="291" y="472.38" as="sourcePoint" />
            <mxPoint x="291" y="492.38" as="targetPoint" />
          </mxGeometry>
        </mxCell>
        <mxCell id="3Zso1NhcMANWD2hy53oU-298" value="" style="endArrow=none;html=1;rounded=0;strokeWidth=2;" parent="1" edge="1">
          <mxGeometry width="50" height="50" relative="1" as="geometry">
            <mxPoint x="301" y="472.38" as="sourcePoint" />
            <mxPoint x="291" y="472.38" as="targetPoint" />
          </mxGeometry>
        </mxCell>
        <mxCell id="3Zso1NhcMANWD2hy53oU-299" value="" style="endArrow=none;html=1;rounded=0;strokeWidth=2;" parent="1" edge="1">
          <mxGeometry width="50" height="50" relative="1" as="geometry">
            <mxPoint x="301" y="472.38" as="sourcePoint" />
            <mxPoint x="301" y="492.38" as="targetPoint" />
          </mxGeometry>
        </mxCell>
        <mxCell id="3Zso1NhcMANWD2hy53oU-300" value="" style="endArrow=none;html=1;rounded=0;strokeWidth=2;" parent="1" edge="1">
          <mxGeometry width="50" height="50" relative="1" as="geometry">
            <mxPoint x="311" y="492.38" as="sourcePoint" />
            <mxPoint x="301" y="492.38" as="targetPoint" />
          </mxGeometry>
        </mxCell>
        <mxCell id="3Zso1NhcMANWD2hy53oU-301" value="" style="endArrow=none;html=1;rounded=0;strokeWidth=2;" parent="1" edge="1">
          <mxGeometry width="50" height="50" relative="1" as="geometry">
            <mxPoint x="321" y="492.38" as="sourcePoint" />
            <mxPoint x="311" y="492.38" as="targetPoint" />
          </mxGeometry>
        </mxCell>
        <mxCell id="3Zso1NhcMANWD2hy53oU-302" value="" style="endArrow=none;html=1;rounded=0;strokeWidth=2;" parent="1" edge="1">
          <mxGeometry width="50" height="50" relative="1" as="geometry">
            <mxPoint x="321" y="472.38" as="sourcePoint" />
            <mxPoint x="321" y="492.38" as="targetPoint" />
          </mxGeometry>
        </mxCell>
        <mxCell id="3Zso1NhcMANWD2hy53oU-303" value="" style="endArrow=none;html=1;rounded=0;strokeWidth=2;" parent="1" edge="1">
          <mxGeometry width="50" height="50" relative="1" as="geometry">
            <mxPoint x="331" y="472.38" as="sourcePoint" />
            <mxPoint x="321" y="472.38" as="targetPoint" />
          </mxGeometry>
        </mxCell>
        <mxCell id="3Zso1NhcMANWD2hy53oU-304" value="" style="endArrow=none;html=1;rounded=0;strokeWidth=2;" parent="1" edge="1">
          <mxGeometry width="50" height="50" relative="1" as="geometry">
            <mxPoint x="331" y="472.38" as="sourcePoint" />
            <mxPoint x="331" y="492.38" as="targetPoint" />
          </mxGeometry>
        </mxCell>
        <mxCell id="3Zso1NhcMANWD2hy53oU-305" value="" style="endArrow=none;html=1;rounded=0;strokeWidth=2;" parent="1" edge="1">
          <mxGeometry width="50" height="50" relative="1" as="geometry">
            <mxPoint x="341" y="492.38" as="sourcePoint" />
            <mxPoint x="331" y="492.38" as="targetPoint" />
          </mxGeometry>
        </mxCell>
        <mxCell id="3Zso1NhcMANWD2hy53oU-306" value="" style="endArrow=none;html=1;rounded=0;strokeWidth=2;" parent="1" edge="1">
          <mxGeometry width="50" height="50" relative="1" as="geometry">
            <mxPoint x="351" y="492.38" as="sourcePoint" />
            <mxPoint x="341" y="492.38" as="targetPoint" />
          </mxGeometry>
        </mxCell>
        <mxCell id="3Zso1NhcMANWD2hy53oU-307" value="" style="endArrow=none;html=1;rounded=0;strokeWidth=2;" parent="1" edge="1">
          <mxGeometry width="50" height="50" relative="1" as="geometry">
            <mxPoint x="351" y="472.38" as="sourcePoint" />
            <mxPoint x="351" y="492.38" as="targetPoint" />
          </mxGeometry>
        </mxCell>
        <mxCell id="3Zso1NhcMANWD2hy53oU-308" value="" style="endArrow=none;html=1;rounded=0;strokeWidth=2;" parent="1" edge="1">
          <mxGeometry width="50" height="50" relative="1" as="geometry">
            <mxPoint x="361" y="472.38" as="sourcePoint" />
            <mxPoint x="351" y="472.38" as="targetPoint" />
          </mxGeometry>
        </mxCell>
        <mxCell id="3Zso1NhcMANWD2hy53oU-309" value="" style="endArrow=none;html=1;rounded=0;strokeWidth=2;" parent="1" edge="1">
          <mxGeometry width="50" height="50" relative="1" as="geometry">
            <mxPoint x="361" y="472.38" as="sourcePoint" />
            <mxPoint x="361" y="492.38" as="targetPoint" />
          </mxGeometry>
        </mxCell>
        <mxCell id="3Zso1NhcMANWD2hy53oU-310" value="" style="endArrow=none;html=1;rounded=0;strokeWidth=2;" parent="1" edge="1">
          <mxGeometry width="50" height="50" relative="1" as="geometry">
            <mxPoint x="371" y="492.38" as="sourcePoint" />
            <mxPoint x="361" y="492.38" as="targetPoint" />
          </mxGeometry>
        </mxCell>
        <mxCell id="3Zso1NhcMANWD2hy53oU-311" value="" style="endArrow=none;html=1;rounded=0;strokeWidth=2;" parent="1" edge="1">
          <mxGeometry width="50" height="50" relative="1" as="geometry">
            <mxPoint x="381" y="492.38" as="sourcePoint" />
            <mxPoint x="371" y="492.38" as="targetPoint" />
          </mxGeometry>
        </mxCell>
        <mxCell id="3Zso1NhcMANWD2hy53oU-312" value="" style="endArrow=none;html=1;rounded=0;strokeWidth=2;" parent="1" edge="1">
          <mxGeometry width="50" height="50" relative="1" as="geometry">
            <mxPoint x="381" y="472.38" as="sourcePoint" />
            <mxPoint x="381" y="492.38" as="targetPoint" />
          </mxGeometry>
        </mxCell>
        <mxCell id="3Zso1NhcMANWD2hy53oU-313" value="" style="endArrow=none;html=1;rounded=0;strokeWidth=2;" parent="1" edge="1">
          <mxGeometry width="50" height="50" relative="1" as="geometry">
            <mxPoint x="391" y="472.38" as="sourcePoint" />
            <mxPoint x="381" y="472.38" as="targetPoint" />
          </mxGeometry>
        </mxCell>
        <mxCell id="3Zso1NhcMANWD2hy53oU-314" value="" style="endArrow=none;html=1;rounded=0;strokeWidth=2;" parent="1" edge="1">
          <mxGeometry width="50" height="50" relative="1" as="geometry">
            <mxPoint x="391" y="472.38" as="sourcePoint" />
            <mxPoint x="391" y="492.38" as="targetPoint" />
          </mxGeometry>
        </mxCell>
        <mxCell id="3Zso1NhcMANWD2hy53oU-315" value="" style="endArrow=none;html=1;rounded=0;strokeWidth=2;" parent="1" edge="1">
          <mxGeometry width="50" height="50" relative="1" as="geometry">
            <mxPoint x="401" y="492.38" as="sourcePoint" />
            <mxPoint x="391" y="492.38" as="targetPoint" />
          </mxGeometry>
        </mxCell>
        <mxCell id="3Zso1NhcMANWD2hy53oU-316" value="" style="endArrow=none;html=1;rounded=0;strokeWidth=2;" parent="1" edge="1">
          <mxGeometry width="50" height="50" relative="1" as="geometry">
            <mxPoint x="411" y="492.38" as="sourcePoint" />
            <mxPoint x="401" y="492.38" as="targetPoint" />
          </mxGeometry>
        </mxCell>
        <mxCell id="3Zso1NhcMANWD2hy53oU-317" value="" style="endArrow=none;html=1;rounded=0;strokeWidth=2;" parent="1" edge="1">
          <mxGeometry width="50" height="50" relative="1" as="geometry">
            <mxPoint x="411" y="472.38" as="sourcePoint" />
            <mxPoint x="411" y="492.38" as="targetPoint" />
          </mxGeometry>
        </mxCell>
        <mxCell id="3Zso1NhcMANWD2hy53oU-318" value="" style="endArrow=none;html=1;rounded=0;strokeWidth=2;" parent="1" edge="1">
          <mxGeometry width="50" height="50" relative="1" as="geometry">
            <mxPoint x="421" y="472.38" as="sourcePoint" />
            <mxPoint x="411" y="472.38" as="targetPoint" />
          </mxGeometry>
        </mxCell>
        <mxCell id="3Zso1NhcMANWD2hy53oU-319" value="" style="endArrow=none;html=1;rounded=0;strokeWidth=2;" parent="1" edge="1">
          <mxGeometry width="50" height="50" relative="1" as="geometry">
            <mxPoint x="421" y="472.38" as="sourcePoint" />
            <mxPoint x="421" y="492.38" as="targetPoint" />
          </mxGeometry>
        </mxCell>
        <mxCell id="3Zso1NhcMANWD2hy53oU-320" value="" style="endArrow=none;html=1;rounded=0;strokeWidth=2;" parent="1" edge="1">
          <mxGeometry width="50" height="50" relative="1" as="geometry">
            <mxPoint x="431" y="492.38" as="sourcePoint" />
            <mxPoint x="421" y="492.38" as="targetPoint" />
          </mxGeometry>
        </mxCell>
        <mxCell id="3Zso1NhcMANWD2hy53oU-321" value="" style="endArrow=none;html=1;rounded=0;strokeWidth=2;" parent="1" edge="1">
          <mxGeometry width="50" height="50" relative="1" as="geometry">
            <mxPoint x="441" y="492.38" as="sourcePoint" />
            <mxPoint x="431" y="492.38" as="targetPoint" />
          </mxGeometry>
        </mxCell>
        <mxCell id="3Zso1NhcMANWD2hy53oU-322" value="" style="endArrow=none;html=1;rounded=0;strokeWidth=2;" parent="1" edge="1">
          <mxGeometry width="50" height="50" relative="1" as="geometry">
            <mxPoint x="441" y="472.38" as="sourcePoint" />
            <mxPoint x="441" y="492.38" as="targetPoint" />
          </mxGeometry>
        </mxCell>
        <mxCell id="3Zso1NhcMANWD2hy53oU-323" value="" style="endArrow=none;html=1;rounded=0;strokeWidth=2;" parent="1" edge="1">
          <mxGeometry width="50" height="50" relative="1" as="geometry">
            <mxPoint x="451" y="472.38" as="sourcePoint" />
            <mxPoint x="441" y="472.38" as="targetPoint" />
          </mxGeometry>
        </mxCell>
        <mxCell id="3Zso1NhcMANWD2hy53oU-324" value="" style="endArrow=none;html=1;rounded=0;strokeWidth=2;" parent="1" edge="1">
          <mxGeometry width="50" height="50" relative="1" as="geometry">
            <mxPoint x="451" y="472.38" as="sourcePoint" />
            <mxPoint x="451" y="492.38" as="targetPoint" />
          </mxGeometry>
        </mxCell>
        <mxCell id="3Zso1NhcMANWD2hy53oU-325" value="" style="endArrow=none;html=1;rounded=0;strokeWidth=2;" parent="1" edge="1">
          <mxGeometry width="50" height="50" relative="1" as="geometry">
            <mxPoint x="461" y="492.38" as="sourcePoint" />
            <mxPoint x="451" y="492.38" as="targetPoint" />
          </mxGeometry>
        </mxCell>
        <mxCell id="3Zso1NhcMANWD2hy53oU-420" value="" style="endArrow=none;html=1;rounded=0;strokeWidth=2;" parent="1" edge="1">
          <mxGeometry width="50" height="50" relative="1" as="geometry">
            <mxPoint x="251" y="532.38" as="sourcePoint" />
            <mxPoint x="231" y="532.38" as="targetPoint" />
          </mxGeometry>
        </mxCell>
        <mxCell id="3Zso1NhcMANWD2hy53oU-421" value="" style="endArrow=none;html=1;rounded=0;strokeWidth=2;" parent="1" edge="1">
          <mxGeometry width="50" height="50" relative="1" as="geometry">
            <mxPoint x="251" y="512.38" as="sourcePoint" />
            <mxPoint x="251" y="532.38" as="targetPoint" />
          </mxGeometry>
        </mxCell>
        <mxCell id="3Zso1NhcMANWD2hy53oU-422" value="" style="endArrow=none;html=1;rounded=0;strokeWidth=2;" parent="1" edge="1">
          <mxGeometry width="50" height="50" relative="1" as="geometry">
            <mxPoint x="281" y="512.38" as="sourcePoint" />
            <mxPoint x="251" y="512.38" as="targetPoint" />
          </mxGeometry>
        </mxCell>
        <mxCell id="3Zso1NhcMANWD2hy53oU-423" value="" style="endArrow=none;html=1;rounded=0;strokeWidth=2;" parent="1" edge="1">
          <mxGeometry width="50" height="50" relative="1" as="geometry">
            <mxPoint x="281" y="512.38" as="sourcePoint" />
            <mxPoint x="281" y="532.38" as="targetPoint" />
          </mxGeometry>
        </mxCell>
        <mxCell id="3Zso1NhcMANWD2hy53oU-424" value="" style="endArrow=none;html=1;rounded=0;strokeWidth=2;" parent="1" edge="1">
          <mxGeometry width="50" height="50" relative="1" as="geometry">
            <mxPoint x="311" y="532.38" as="sourcePoint" />
            <mxPoint x="281" y="532.38" as="targetPoint" />
          </mxGeometry>
        </mxCell>
        <mxCell id="3Zso1NhcMANWD2hy53oU-425" value="" style="endArrow=none;html=1;rounded=0;strokeWidth=2;" parent="1" edge="1">
          <mxGeometry width="50" height="50" relative="1" as="geometry">
            <mxPoint x="311" y="512.38" as="sourcePoint" />
            <mxPoint x="311" y="532.38" as="targetPoint" />
          </mxGeometry>
        </mxCell>
        <mxCell id="3Zso1NhcMANWD2hy53oU-426" value="" style="endArrow=none;html=1;rounded=0;strokeWidth=2;" parent="1" edge="1">
          <mxGeometry width="50" height="50" relative="1" as="geometry">
            <mxPoint x="341" y="512.38" as="sourcePoint" />
            <mxPoint x="311" y="512.38" as="targetPoint" />
          </mxGeometry>
        </mxCell>
        <mxCell id="3Zso1NhcMANWD2hy53oU-427" value="" style="endArrow=none;html=1;rounded=0;strokeWidth=2;" parent="1" edge="1">
          <mxGeometry width="50" height="50" relative="1" as="geometry">
            <mxPoint x="341" y="512.38" as="sourcePoint" />
            <mxPoint x="341" y="532.38" as="targetPoint" />
          </mxGeometry>
        </mxCell>
        <mxCell id="3Zso1NhcMANWD2hy53oU-432" value="" style="endArrow=none;html=1;rounded=0;strokeWidth=2;" parent="1" edge="1">
          <mxGeometry width="50" height="50" relative="1" as="geometry">
            <mxPoint x="431" y="512.38" as="sourcePoint" />
            <mxPoint x="371" y="512.38" as="targetPoint" />
          </mxGeometry>
        </mxCell>
        <mxCell id="3Zso1NhcMANWD2hy53oU-433" value="" style="endArrow=none;html=1;rounded=0;strokeWidth=2;" parent="1" edge="1">
          <mxGeometry width="50" height="50" relative="1" as="geometry">
            <mxPoint x="371" y="532.38" as="sourcePoint" />
            <mxPoint x="341" y="532.38" as="targetPoint" />
          </mxGeometry>
        </mxCell>
        <mxCell id="3Zso1NhcMANWD2hy53oU-434" value="" style="endArrow=none;html=1;rounded=0;strokeWidth=2;" parent="1" edge="1">
          <mxGeometry width="50" height="50" relative="1" as="geometry">
            <mxPoint x="371" y="512.38" as="sourcePoint" />
            <mxPoint x="371" y="532.38" as="targetPoint" />
          </mxGeometry>
        </mxCell>
        <mxCell id="3Zso1NhcMANWD2hy53oU-440" value="" style="endArrow=none;html=1;rounded=0;strokeWidth=2;" parent="1" edge="1">
          <mxGeometry width="50" height="50" relative="1" as="geometry">
            <mxPoint x="461" y="512.38" as="sourcePoint" />
            <mxPoint x="431" y="512.38" as="targetPoint" />
          </mxGeometry>
        </mxCell>
        <mxCell id="3Zso1NhcMANWD2hy53oU-441" value="" style="endArrow=none;html=1;rounded=0;strokeWidth=2;" parent="1" edge="1">
          <mxGeometry width="50" height="50" relative="1" as="geometry">
            <mxPoint x="461" y="512.38" as="sourcePoint" />
            <mxPoint x="461" y="532.38" as="targetPoint" />
          </mxGeometry>
        </mxCell>
        <mxCell id="3Zso1NhcMANWD2hy53oU-442" value="" style="endArrow=none;html=1;rounded=0;strokeWidth=2;" parent="1" edge="1">
          <mxGeometry width="50" height="50" relative="1" as="geometry">
            <mxPoint x="570" y="532.38" as="sourcePoint" />
            <mxPoint x="461" y="532.38" as="targetPoint" />
          </mxGeometry>
        </mxCell>
        <mxCell id="3Zso1NhcMANWD2hy53oU-448" value="SCL" style="text;html=1;strokeColor=none;fillColor=none;align=center;verticalAlign=middle;whiteSpace=wrap;rounded=0;fontFamily=Computer Modern;" parent="1" vertex="1">
          <mxGeometry x="70" y="224" width="30" height="30" as="geometry" />
        </mxCell>
        <mxCell id="3Zso1NhcMANWD2hy53oU-449" value="1" style="text;html=1;strokeColor=none;fillColor=none;align=center;verticalAlign=middle;whiteSpace=wrap;rounded=0;fontFamily=Computer Modern;" parent="1" vertex="1">
          <mxGeometry x="103" y="220" width="10" height="20" as="geometry" />
        </mxCell>
        <mxCell id="3Zso1NhcMANWD2hy53oU-450" value="0" style="text;html=1;strokeColor=none;fillColor=none;align=center;verticalAlign=middle;whiteSpace=wrap;rounded=0;fontFamily=Computer Modern;" parent="1" vertex="1">
          <mxGeometry x="103" y="240" width="10" height="20" as="geometry" />
        </mxCell>
        <mxCell id="3Zso1NhcMANWD2hy53oU-451" value="SDA" style="text;html=1;strokeColor=none;fillColor=none;align=center;verticalAlign=middle;whiteSpace=wrap;rounded=0;fontFamily=Computer Modern;" parent="1" vertex="1">
          <mxGeometry x="70" y="264" width="30" height="30" as="geometry" />
        </mxCell>
        <mxCell id="3Zso1NhcMANWD2hy53oU-452" value="1" style="text;html=1;strokeColor=none;fillColor=none;align=center;verticalAlign=middle;whiteSpace=wrap;rounded=0;fontFamily=Computer Modern;" parent="1" vertex="1">
          <mxGeometry x="103" y="260" width="10" height="20" as="geometry" />
        </mxCell>
        <mxCell id="3Zso1NhcMANWD2hy53oU-453" value="0" style="text;html=1;strokeColor=none;fillColor=none;align=center;verticalAlign=middle;whiteSpace=wrap;rounded=0;fontFamily=Computer Modern;" parent="1" vertex="1">
          <mxGeometry x="103" y="280" width="10" height="20" as="geometry" />
        </mxCell>
        <mxCell id="3Zso1NhcMANWD2hy53oU-454" value="0" style="text;html=1;strokeColor=none;fillColor=none;align=center;verticalAlign=middle;whiteSpace=wrap;rounded=0;fontFamily=Computer Modern;" parent="1" vertex="1">
          <mxGeometry x="176" y="311" width="10" height="20" as="geometry" />
        </mxCell>
        <mxCell id="3Zso1NhcMANWD2hy53oU-455" value="1" style="text;html=1;strokeColor=none;fillColor=none;align=center;verticalAlign=middle;whiteSpace=wrap;rounded=0;fontFamily=Computer Modern;" parent="1" vertex="1">
          <mxGeometry x="206" y="311" width="10" height="20" as="geometry" />
        </mxCell>
        <mxCell id="3Zso1NhcMANWD2hy53oU-456" value="1" style="text;html=1;strokeColor=none;fillColor=none;align=center;verticalAlign=middle;whiteSpace=wrap;rounded=0;fontFamily=Computer Modern;" parent="1" vertex="1">
          <mxGeometry x="236" y="311" width="10" height="20" as="geometry" />
        </mxCell>
        <mxCell id="3Zso1NhcMANWD2hy53oU-457" value="1" style="text;html=1;strokeColor=none;fillColor=none;align=center;verticalAlign=middle;whiteSpace=wrap;rounded=0;fontFamily=Computer Modern;" parent="1" vertex="1">
          <mxGeometry x="266" y="311" width="10" height="20" as="geometry" />
        </mxCell>
        <mxCell id="3Zso1NhcMANWD2hy53oU-458" value="1" style="text;html=1;strokeColor=none;fillColor=none;align=center;verticalAlign=middle;whiteSpace=wrap;rounded=0;fontFamily=Computer Modern;" parent="1" vertex="1">
          <mxGeometry x="296" y="311" width="10" height="20" as="geometry" />
        </mxCell>
        <mxCell id="3Zso1NhcMANWD2hy53oU-459" value="0" style="text;html=1;strokeColor=none;fillColor=none;align=center;verticalAlign=middle;whiteSpace=wrap;rounded=0;fontFamily=Computer Modern;" parent="1" vertex="1">
          <mxGeometry x="326" y="311" width="10" height="20" as="geometry" />
        </mxCell>
        <mxCell id="3Zso1NhcMANWD2hy53oU-460" value="0" style="text;html=1;strokeColor=none;fillColor=none;align=center;verticalAlign=middle;whiteSpace=wrap;rounded=0;fontFamily=Computer Modern;" parent="1" vertex="1">
          <mxGeometry x="356" y="311" width="10" height="20" as="geometry" />
        </mxCell>
        <mxCell id="3Zso1NhcMANWD2hy53oU-461" value="0" style="text;html=1;strokeColor=none;fillColor=none;align=center;verticalAlign=middle;whiteSpace=wrap;rounded=0;fontFamily=Computer Modern;" parent="1" vertex="1">
          <mxGeometry x="386" y="311" width="10" height="20" as="geometry" />
        </mxCell>
        <mxCell id="3Zso1NhcMANWD2hy53oU-462" value="0" style="text;html=1;strokeColor=none;fillColor=none;align=center;verticalAlign=middle;whiteSpace=wrap;rounded=0;fontFamily=Computer Modern;" parent="1" vertex="1">
          <mxGeometry x="416" y="311" width="10" height="20" as="geometry" />
        </mxCell>
        <mxCell id="3Zso1NhcMANWD2hy53oU-463" value="0" style="text;html=1;strokeColor=none;fillColor=none;align=center;verticalAlign=middle;whiteSpace=wrap;rounded=0;fontFamily=Computer Modern;" parent="1" vertex="1">
          <mxGeometry x="446" y="311" width="10" height="20" as="geometry" />
        </mxCell>
        <mxCell id="3Zso1NhcMANWD2hy53oU-464" value="0" style="text;html=1;strokeColor=none;fillColor=none;align=center;verticalAlign=middle;whiteSpace=wrap;rounded=0;fontFamily=Computer Modern;" parent="1" vertex="1">
          <mxGeometry x="476" y="311" width="10" height="20" as="geometry" />
        </mxCell>
        <mxCell id="3Zso1NhcMANWD2hy53oU-465" value="0" style="text;html=1;strokeColor=none;fillColor=none;align=center;verticalAlign=middle;whiteSpace=wrap;rounded=0;fontFamily=Computer Modern;" parent="1" vertex="1">
          <mxGeometry x="506" y="311" width="10" height="20" as="geometry" />
        </mxCell>
        <mxCell id="3Zso1NhcMANWD2hy53oU-466" value="0" style="text;html=1;strokeColor=none;fillColor=none;align=center;verticalAlign=middle;whiteSpace=wrap;rounded=0;fontFamily=Computer Modern;" parent="1" vertex="1">
          <mxGeometry x="536" y="311" width="10" height="20" as="geometry" />
        </mxCell>
        <mxCell id="3Zso1NhcMANWD2hy53oU-467" value="0" style="text;html=1;strokeColor=none;fillColor=none;align=center;verticalAlign=middle;whiteSpace=wrap;rounded=0;fontFamily=Computer Modern;" parent="1" vertex="1">
          <mxGeometry x="566" y="311" width="10" height="20" as="geometry" />
        </mxCell>
        <mxCell id="3Zso1NhcMANWD2hy53oU-468" value="0" style="text;html=1;strokeColor=none;fillColor=none;align=center;verticalAlign=middle;whiteSpace=wrap;rounded=0;fontFamily=Computer Modern;" parent="1" vertex="1">
          <mxGeometry x="596" y="311" width="10" height="20" as="geometry" />
        </mxCell>
        <mxCell id="3Zso1NhcMANWD2hy53oU-469" value="0" style="text;html=1;strokeColor=none;fillColor=none;align=center;verticalAlign=middle;whiteSpace=wrap;rounded=0;fontFamily=Computer Modern;" parent="1" vertex="1">
          <mxGeometry x="626" y="311" width="10" height="20" as="geometry" />
        </mxCell>
        <mxCell id="3Zso1NhcMANWD2hy53oU-470" value="0" style="text;html=1;strokeColor=none;fillColor=none;align=center;verticalAlign=middle;whiteSpace=wrap;rounded=0;fontFamily=Computer Modern;" parent="1" vertex="1">
          <mxGeometry x="656" y="311" width="10" height="20" as="geometry" />
        </mxCell>
        <mxCell id="3Zso1NhcMANWD2hy53oU-471" value="0" style="text;html=1;strokeColor=none;fillColor=none;align=center;verticalAlign=middle;whiteSpace=wrap;rounded=0;fontFamily=Computer Modern;" parent="1" vertex="1">
          <mxGeometry x="686" y="311" width="10" height="20" as="geometry" />
        </mxCell>
        <mxCell id="3Zso1NhcMANWD2hy53oU-472" value="" style="ellipse;whiteSpace=wrap;html=1;dashed=1;fillColor=none;rotation=-75;" parent="1" vertex="1">
          <mxGeometry x="102.50999999999999" y="246.11" width="84.39" height="30" as="geometry" />
        </mxCell>
        <mxCell id="3Zso1NhcMANWD2hy53oU-473" value="&amp;nbsp; Start bit (SDA &lt;br&gt;&amp;nbsp; goes low after SCL)" style="shape=note;size=20;whiteSpace=wrap;html=1;fontFamily=Computer Modern;align=left;shadow=1;" parent="1" vertex="1">
          <mxGeometry x="196.9" y="151" width="109.1" height="54" as="geometry" />
        </mxCell>
        <mxCell id="3Zso1NhcMANWD2hy53oU-474" value="" style="shape=curlyBracket;whiteSpace=wrap;html=1;rounded=1;labelPosition=left;verticalLabelPosition=middle;align=right;verticalAlign=middle;rotation=-90;" parent="1" vertex="1">
          <mxGeometry x="262.25" y="249.75" width="20" height="182.5" as="geometry" />
        </mxCell>
        <mxCell id="3Zso1NhcMANWD2hy53oU-475" value="" style="endArrow=none;html=1;rounded=0;strokeWidth=2;" parent="1" edge="1">
          <mxGeometry width="50" height="50" relative="1" as="geometry">
            <mxPoint x="316" y="270" as="sourcePoint" />
            <mxPoint x="316" y="290" as="targetPoint" />
          </mxGeometry>
        </mxCell>
        <mxCell id="3Zso1NhcMANWD2hy53oU-477" value="Address = 0b0111100 = 0x3C" style="text;html=1;strokeColor=none;fillColor=none;align=center;verticalAlign=middle;whiteSpace=wrap;rounded=0;fontFamily=Computer Modern;" parent="1" vertex="1">
          <mxGeometry x="186" y="346" width="163.12" height="30" as="geometry" />
        </mxCell>
        <mxCell id="3Zso1NhcMANWD2hy53oU-479" value="" style="shape=curlyBracket;whiteSpace=wrap;html=1;rounded=1;labelPosition=left;verticalLabelPosition=middle;align=right;verticalAlign=middle;rotation=-90;" parent="1" vertex="1">
          <mxGeometry x="411" y="331.53999999999996" width="20" height="18.92" as="geometry" />
        </mxCell>
        <mxCell id="3Zso1NhcMANWD2hy53oU-481" value="" style="shape=curlyBracket;whiteSpace=wrap;html=1;rounded=1;labelPosition=left;verticalLabelPosition=middle;align=right;verticalAlign=middle;rotation=-90;" parent="1" vertex="1">
          <mxGeometry x="381" y="331.53999999999996" width="20" height="18.92" as="geometry" />
        </mxCell>
        <mxCell id="3Zso1NhcMANWD2hy53oU-482" value="RW" style="text;html=1;strokeColor=none;fillColor=none;align=center;verticalAlign=middle;whiteSpace=wrap;rounded=0;fontFamily=Computer Modern;" parent="1" vertex="1">
          <mxGeometry x="371" y="346" width="40" height="30" as="geometry" />
        </mxCell>
        <mxCell id="3Zso1NhcMANWD2hy53oU-483" value="ACK" style="text;html=1;strokeColor=none;fillColor=none;align=center;verticalAlign=middle;whiteSpace=wrap;rounded=0;fontFamily=Computer Modern;" parent="1" vertex="1">
          <mxGeometry x="401" y="346" width="40" height="30" as="geometry" />
        </mxCell>
        <mxCell id="3Zso1NhcMANWD2hy53oU-484" value="" style="shape=curlyBracket;whiteSpace=wrap;html=1;rounded=1;labelPosition=left;verticalLabelPosition=middle;align=right;verticalAlign=middle;rotation=-90;" parent="1" vertex="1">
          <mxGeometry x="545.38" y="230.37" width="20" height="221.25" as="geometry" />
        </mxCell>
        <mxCell id="3Zso1NhcMANWD2hy53oU-487" value="data[0] = 0b00000000 = 0x00&lt;br&gt;(peripheral specific)" style="text;html=1;strokeColor=none;fillColor=none;align=center;verticalAlign=middle;whiteSpace=wrap;rounded=0;fontFamily=Computer Modern;" parent="1" vertex="1">
          <mxGeometry x="479" y="352.46000000000004" width="159.38" height="30" as="geometry" />
        </mxCell>
        <mxCell id="3Zso1NhcMANWD2hy53oU-488" value="" style="shape=curlyBracket;whiteSpace=wrap;html=1;rounded=1;labelPosition=left;verticalLabelPosition=middle;align=right;verticalAlign=middle;rotation=-90;" parent="1" vertex="1">
          <mxGeometry x="681" y="331" width="20" height="18.92" as="geometry" />
        </mxCell>
        <mxCell id="3Zso1NhcMANWD2hy53oU-489" value="ACK" style="text;html=1;strokeColor=none;fillColor=none;align=center;verticalAlign=middle;whiteSpace=wrap;rounded=0;fontFamily=Computer Modern;" parent="1" vertex="1">
          <mxGeometry x="671" y="345.46000000000004" width="40" height="30" as="geometry" />
        </mxCell>
        <mxCell id="3Zso1NhcMANWD2hy53oU-490" value="time" style="text;html=1;strokeColor=none;fillColor=none;align=center;verticalAlign=middle;whiteSpace=wrap;rounded=0;fontFamily=Computer Modern;" parent="1" vertex="1">
          <mxGeometry x="716" y="311" width="40" height="30" as="geometry" />
        </mxCell>
        <mxCell id="3Zso1NhcMANWD2hy53oU-491" value="I&lt;sup&gt;2&lt;/sup&gt;C pin states" style="text;html=1;strokeColor=none;fillColor=none;align=center;verticalAlign=middle;whiteSpace=wrap;rounded=0;fontFamily=Computer Modern;" parent="1" vertex="1">
          <mxGeometry x="86" y="140" width="70" height="30" as="geometry" />
        </mxCell>
        <mxCell id="3Zso1NhcMANWD2hy53oU-494" value="&amp;nbsp; Awlays 0 since ZeroMate only&lt;br&gt;&amp;nbsp; supports writing to the I&lt;sup&gt;2&lt;/sup&gt;C bus" style="shape=note;size=20;whiteSpace=wrap;html=1;fontFamily=Computer Modern;align=left;shadow=1;" parent="1" vertex="1">
          <mxGeometry x="349.12" y="151" width="180" height="54" as="geometry" />
        </mxCell>
        <mxCell id="3Zso1NhcMANWD2hy53oU-496" value="I&lt;sup&gt;2&lt;/sup&gt;C pin states" style="text;html=1;strokeColor=none;fillColor=none;align=center;verticalAlign=middle;whiteSpace=wrap;rounded=0;fontFamily=Computer Modern;" parent="1" vertex="1">
          <mxGeometry x="196" y="405" width="70" height="30" as="geometry" />
        </mxCell>
        <mxCell id="3Zso1NhcMANWD2hy53oU-497" value="1" style="text;html=1;strokeColor=none;fillColor=none;align=center;verticalAlign=middle;whiteSpace=wrap;rounded=0;fontFamily=Computer Modern;" parent="1" vertex="1">
          <mxGeometry x="261" y="555.38" width="10" height="20" as="geometry" />
        </mxCell>
        <mxCell id="3Zso1NhcMANWD2hy53oU-498" value="0" style="text;html=1;strokeColor=none;fillColor=none;align=center;verticalAlign=middle;whiteSpace=wrap;rounded=0;fontFamily=Computer Modern;" parent="1" vertex="1">
          <mxGeometry x="291" y="555.38" width="10" height="20" as="geometry" />
        </mxCell>
        <mxCell id="3Zso1NhcMANWD2hy53oU-499" value="1" style="text;html=1;strokeColor=none;fillColor=none;align=center;verticalAlign=middle;whiteSpace=wrap;rounded=0;fontFamily=Computer Modern;" parent="1" vertex="1">
          <mxGeometry x="321" y="555.38" width="10" height="20" as="geometry" />
        </mxCell>
        <mxCell id="3Zso1NhcMANWD2hy53oU-500" value="0" style="text;html=1;strokeColor=none;fillColor=none;align=center;verticalAlign=middle;whiteSpace=wrap;rounded=0;fontFamily=Computer Modern;" parent="1" vertex="1">
          <mxGeometry x="351" y="555.38" width="10" height="20" as="geometry" />
        </mxCell>
        <mxCell id="3Zso1NhcMANWD2hy53oU-501" value="1" style="text;html=1;strokeColor=none;fillColor=none;align=center;verticalAlign=middle;whiteSpace=wrap;rounded=0;fontFamily=Computer Modern;" parent="1" vertex="1">
          <mxGeometry x="382.25" y="555.38" width="10" height="20" as="geometry" />
        </mxCell>
        <mxCell id="3Zso1NhcMANWD2hy53oU-502" value="1" style="text;html=1;strokeColor=none;fillColor=none;align=center;verticalAlign=middle;whiteSpace=wrap;rounded=0;fontFamily=Computer Modern;" parent="1" vertex="1">
          <mxGeometry x="411" y="555.38" width="10" height="20" as="geometry" />
        </mxCell>
        <mxCell id="3Zso1NhcMANWD2hy53oU-503" value="1" style="text;html=1;strokeColor=none;fillColor=none;align=center;verticalAlign=middle;whiteSpace=wrap;rounded=0;fontFamily=Computer Modern;" parent="1" vertex="1">
          <mxGeometry x="441" y="555.38" width="10" height="20" as="geometry" />
        </mxCell>
        <mxCell id="3Zso1NhcMANWD2hy53oU-504" value="0" style="text;html=1;strokeColor=none;fillColor=none;align=center;verticalAlign=middle;whiteSpace=wrap;rounded=0;fontFamily=Computer Modern;" parent="1" vertex="1">
          <mxGeometry x="471" y="555.38" width="10" height="20" as="geometry" />
        </mxCell>
        <mxCell id="3Zso1NhcMANWD2hy53oU-505" value="&amp;nbsp; ACK is supposed to be 0" style="shape=note;size=20;whiteSpace=wrap;html=1;fontFamily=Computer Modern;align=left;shadow=1;" parent="1" vertex="1">
          <mxGeometry x="561" y="175" width="155" height="30" as="geometry" />
        </mxCell>
        <mxCell id="3Zso1NhcMANWD2hy53oU-507" value="" style="shape=curlyBracket;whiteSpace=wrap;html=1;rounded=1;labelPosition=left;verticalLabelPosition=middle;align=right;verticalAlign=middle;rotation=-90;" parent="1" vertex="1">
          <mxGeometry x="361.63" y="479.76" width="20" height="213.75" as="geometry" />
        </mxCell>
        <mxCell id="3Zso1NhcMANWD2hy53oU-533" value="" style="endArrow=none;html=1;rounded=0;strokeWidth=2;" parent="1" edge="1">
          <mxGeometry width="50" height="50" relative="1" as="geometry">
            <mxPoint x="470" y="492.38" as="sourcePoint" />
            <mxPoint x="460" y="492.38" as="targetPoint" />
          </mxGeometry>
        </mxCell>
        <mxCell id="3Zso1NhcMANWD2hy53oU-534" value="" style="endArrow=none;html=1;rounded=0;strokeWidth=2;" parent="1" edge="1">
          <mxGeometry width="50" height="50" relative="1" as="geometry">
            <mxPoint x="470" y="472.38" as="sourcePoint" />
            <mxPoint x="470" y="492.38" as="targetPoint" />
          </mxGeometry>
        </mxCell>
        <mxCell id="3Zso1NhcMANWD2hy53oU-535" value="" style="endArrow=none;html=1;rounded=0;strokeWidth=2;" parent="1" edge="1">
          <mxGeometry width="50" height="50" relative="1" as="geometry">
            <mxPoint x="480" y="472.38" as="sourcePoint" />
            <mxPoint x="470" y="472.38" as="targetPoint" />
          </mxGeometry>
        </mxCell>
        <mxCell id="3Zso1NhcMANWD2hy53oU-536" value="" style="endArrow=none;html=1;rounded=0;strokeWidth=2;" parent="1" edge="1">
          <mxGeometry width="50" height="50" relative="1" as="geometry">
            <mxPoint x="480" y="472.38" as="sourcePoint" />
            <mxPoint x="480" y="492.38" as="targetPoint" />
          </mxGeometry>
        </mxCell>
        <mxCell id="3Zso1NhcMANWD2hy53oU-537" value="" style="endArrow=none;html=1;rounded=0;strokeWidth=2;" parent="1" edge="1">
          <mxGeometry width="50" height="50" relative="1" as="geometry">
            <mxPoint x="490" y="492.38" as="sourcePoint" />
            <mxPoint x="480" y="492.38" as="targetPoint" />
          </mxGeometry>
        </mxCell>
        <mxCell id="3Zso1NhcMANWD2hy53oU-538" value="" style="endArrow=none;html=1;rounded=0;strokeWidth=2;" parent="1" edge="1">
          <mxGeometry width="50" height="50" relative="1" as="geometry">
            <mxPoint x="500" y="492.38" as="sourcePoint" />
            <mxPoint x="490" y="492.38" as="targetPoint" />
          </mxGeometry>
        </mxCell>
        <mxCell id="3Zso1NhcMANWD2hy53oU-539" value="" style="endArrow=none;html=1;rounded=0;strokeWidth=2;" parent="1" edge="1">
          <mxGeometry width="50" height="50" relative="1" as="geometry">
            <mxPoint x="500" y="472.38" as="sourcePoint" />
            <mxPoint x="500" y="492.38" as="targetPoint" />
          </mxGeometry>
        </mxCell>
        <mxCell id="3Zso1NhcMANWD2hy53oU-540" value="" style="endArrow=none;html=1;rounded=0;strokeWidth=2;" parent="1" edge="1">
          <mxGeometry width="50" height="50" relative="1" as="geometry">
            <mxPoint x="510" y="472.38" as="sourcePoint" />
            <mxPoint x="500" y="472.38" as="targetPoint" />
          </mxGeometry>
        </mxCell>
        <mxCell id="3Zso1NhcMANWD2hy53oU-541" value="" style="endArrow=none;html=1;rounded=0;strokeWidth=2;" parent="1" edge="1">
          <mxGeometry width="50" height="50" relative="1" as="geometry">
            <mxPoint x="510" y="472.38" as="sourcePoint" />
            <mxPoint x="510" y="492.38" as="targetPoint" />
          </mxGeometry>
        </mxCell>
        <mxCell id="3Zso1NhcMANWD2hy53oU-542" value="" style="endArrow=none;html=1;rounded=0;strokeWidth=2;" parent="1" edge="1">
          <mxGeometry width="50" height="50" relative="1" as="geometry">
            <mxPoint x="520" y="492.38" as="sourcePoint" />
            <mxPoint x="510" y="492.38" as="targetPoint" />
          </mxGeometry>
        </mxCell>
        <mxCell id="3Zso1NhcMANWD2hy53oU-543" value="" style="endArrow=none;html=1;rounded=0;strokeWidth=2;" parent="1" edge="1">
          <mxGeometry width="50" height="50" relative="1" as="geometry">
            <mxPoint x="530" y="492.38" as="sourcePoint" />
            <mxPoint x="520" y="492.38" as="targetPoint" />
          </mxGeometry>
        </mxCell>
        <mxCell id="3Zso1NhcMANWD2hy53oU-544" value="" style="endArrow=none;html=1;rounded=0;strokeWidth=2;" parent="1" edge="1">
          <mxGeometry width="50" height="50" relative="1" as="geometry">
            <mxPoint x="530" y="472.38" as="sourcePoint" />
            <mxPoint x="530" y="492.38" as="targetPoint" />
          </mxGeometry>
        </mxCell>
        <mxCell id="3Zso1NhcMANWD2hy53oU-545" value="" style="endArrow=none;html=1;rounded=0;strokeWidth=2;" parent="1" edge="1">
          <mxGeometry width="50" height="50" relative="1" as="geometry">
            <mxPoint x="540" y="472.38" as="sourcePoint" />
            <mxPoint x="530" y="472.38" as="targetPoint" />
          </mxGeometry>
        </mxCell>
        <mxCell id="3Zso1NhcMANWD2hy53oU-546" value="" style="endArrow=none;html=1;rounded=0;strokeWidth=2;" parent="1" edge="1">
          <mxGeometry width="50" height="50" relative="1" as="geometry">
            <mxPoint x="540" y="472.38" as="sourcePoint" />
            <mxPoint x="540" y="492.38" as="targetPoint" />
          </mxGeometry>
        </mxCell>
        <mxCell id="3Zso1NhcMANWD2hy53oU-547" value="" style="endArrow=none;html=1;rounded=0;strokeWidth=2;" parent="1" edge="1">
          <mxGeometry width="50" height="50" relative="1" as="geometry">
            <mxPoint x="550" y="492.38" as="sourcePoint" />
            <mxPoint x="540" y="492.38" as="targetPoint" />
          </mxGeometry>
        </mxCell>
        <mxCell id="3Zso1NhcMANWD2hy53oU-548" value="0" style="text;html=1;strokeColor=none;fillColor=none;align=center;verticalAlign=middle;whiteSpace=wrap;rounded=0;fontFamily=Computer Modern;" parent="1" vertex="1">
          <mxGeometry x="501" y="555.38" width="10" height="20" as="geometry" />
        </mxCell>
        <mxCell id="3Zso1NhcMANWD2hy53oU-549" value="0" style="text;html=1;strokeColor=none;fillColor=none;align=center;verticalAlign=middle;whiteSpace=wrap;rounded=0;fontFamily=Computer Modern;" parent="1" vertex="1">
          <mxGeometry x="530" y="555.38" width="10" height="20" as="geometry" />
        </mxCell>
        <mxCell id="3Zso1NhcMANWD2hy53oU-560" value="" style="endArrow=none;html=1;rounded=0;strokeWidth=2;" parent="1" edge="1">
          <mxGeometry width="50" height="50" relative="1" as="geometry">
            <mxPoint x="560" y="492.38" as="sourcePoint" />
            <mxPoint x="550" y="492.38" as="targetPoint" />
          </mxGeometry>
        </mxCell>
        <mxCell id="3Zso1NhcMANWD2hy53oU-561" value="" style="endArrow=none;html=1;rounded=0;strokeWidth=2;" parent="1" edge="1">
          <mxGeometry width="50" height="50" relative="1" as="geometry">
            <mxPoint x="559.9300000000001" y="472.38" as="sourcePoint" />
            <mxPoint x="559.9300000000001" y="492.38" as="targetPoint" />
          </mxGeometry>
        </mxCell>
        <mxCell id="3Zso1NhcMANWD2hy53oU-562" value="" style="endArrow=none;html=1;rounded=0;strokeWidth=2;" parent="1" edge="1">
          <mxGeometry width="50" height="50" relative="1" as="geometry">
            <mxPoint x="590" y="472.38" as="sourcePoint" />
            <mxPoint x="560" y="472.38" as="targetPoint" />
          </mxGeometry>
        </mxCell>
        <mxCell id="3Zso1NhcMANWD2hy53oU-563" value="" style="endArrow=none;html=1;rounded=0;strokeWidth=2;" parent="1" edge="1">
          <mxGeometry width="50" height="50" relative="1" as="geometry">
            <mxPoint x="570" y="512.38" as="sourcePoint" />
            <mxPoint x="570" y="532.38" as="targetPoint" />
          </mxGeometry>
        </mxCell>
        <mxCell id="3Zso1NhcMANWD2hy53oU-564" value="" style="endArrow=none;html=1;rounded=0;strokeWidth=2;" parent="1" edge="1">
          <mxGeometry width="50" height="50" relative="1" as="geometry">
            <mxPoint x="590" y="512.38" as="sourcePoint" />
            <mxPoint x="570" y="512.38" as="targetPoint" />
          </mxGeometry>
        </mxCell>
        <mxCell id="3Zso1NhcMANWD2hy53oU-565" value="time" style="text;html=1;strokeColor=none;fillColor=none;align=center;verticalAlign=middle;whiteSpace=wrap;rounded=0;fontFamily=Computer Modern;" parent="1" vertex="1">
          <mxGeometry x="589" y="563.38" width="40" height="30" as="geometry" />
        </mxCell>
        <mxCell id="3Zso1NhcMANWD2hy53oU-567" value="" style="shape=curlyBracket;whiteSpace=wrap;html=1;rounded=1;labelPosition=left;verticalLabelPosition=middle;align=right;verticalAlign=middle;rotation=-90;" parent="1" vertex="1">
          <mxGeometry x="526" y="575.38" width="20" height="18.92" as="geometry" />
        </mxCell>
        <mxCell id="3Zso1NhcMANWD2hy53oU-568" value="" style="shape=curlyBracket;whiteSpace=wrap;html=1;rounded=1;labelPosition=left;verticalLabelPosition=middle;align=right;verticalAlign=middle;rotation=-90;" parent="1" vertex="1">
          <mxGeometry x="496" y="575.38" width="20" height="18.92" as="geometry" />
        </mxCell>
        <mxCell id="3Zso1NhcMANWD2hy53oU-569" value="RW" style="text;html=1;strokeColor=none;fillColor=none;align=center;verticalAlign=middle;whiteSpace=wrap;rounded=0;fontFamily=Computer Modern;" parent="1" vertex="1">
          <mxGeometry x="486" y="589.84" width="40" height="30" as="geometry" />
        </mxCell>
        <mxCell id="3Zso1NhcMANWD2hy53oU-570" value="ACK" style="text;html=1;strokeColor=none;fillColor=none;align=center;verticalAlign=middle;whiteSpace=wrap;rounded=0;fontFamily=Computer Modern;" parent="1" vertex="1">
          <mxGeometry x="516" y="589.84" width="40" height="30" as="geometry" />
        </mxCell>
        <mxCell id="3Zso1NhcMANWD2hy53oU-571" value="data[1] = 0b10101110 = 0xAE&lt;br&gt;(peripheral specific)" style="text;html=1;strokeColor=none;fillColor=none;align=center;verticalAlign=middle;whiteSpace=wrap;rounded=0;fontFamily=Computer Modern;" parent="1" vertex="1">
          <mxGeometry x="296" y="603.38" width="159.38" height="30" as="geometry" />
        </mxCell>
        <mxCell id="3Zso1NhcMANWD2hy53oU-572" value="SCL" style="text;html=1;strokeColor=none;fillColor=none;align=center;verticalAlign=middle;whiteSpace=wrap;rounded=0;fontFamily=Computer Modern;" parent="1" vertex="1">
          <mxGeometry x="186" y="464.38" width="30" height="30" as="geometry" />
        </mxCell>
        <mxCell id="3Zso1NhcMANWD2hy53oU-573" value="1" style="text;html=1;strokeColor=none;fillColor=none;align=center;verticalAlign=middle;whiteSpace=wrap;rounded=0;fontFamily=Computer Modern;" parent="1" vertex="1">
          <mxGeometry x="219" y="460.38" width="10" height="20" as="geometry" />
        </mxCell>
        <mxCell id="3Zso1NhcMANWD2hy53oU-574" value="0" style="text;html=1;strokeColor=none;fillColor=none;align=center;verticalAlign=middle;whiteSpace=wrap;rounded=0;fontFamily=Computer Modern;" parent="1" vertex="1">
          <mxGeometry x="219" y="480.38" width="10" height="20" as="geometry" />
        </mxCell>
        <mxCell id="3Zso1NhcMANWD2hy53oU-575" value="SDA" style="text;html=1;strokeColor=none;fillColor=none;align=center;verticalAlign=middle;whiteSpace=wrap;rounded=0;fontFamily=Computer Modern;" parent="1" vertex="1">
          <mxGeometry x="186" y="504.38" width="30" height="30" as="geometry" />
        </mxCell>
        <mxCell id="3Zso1NhcMANWD2hy53oU-576" value="1" style="text;html=1;strokeColor=none;fillColor=none;align=center;verticalAlign=middle;whiteSpace=wrap;rounded=0;fontFamily=Computer Modern;" parent="1" vertex="1">
          <mxGeometry x="219" y="500.38" width="10" height="20" as="geometry" />
        </mxCell>
        <mxCell id="3Zso1NhcMANWD2hy53oU-577" value="0" style="text;html=1;strokeColor=none;fillColor=none;align=center;verticalAlign=middle;whiteSpace=wrap;rounded=0;fontFamily=Computer Modern;" parent="1" vertex="1">
          <mxGeometry x="219" y="520.38" width="10" height="20" as="geometry" />
        </mxCell>
        <mxCell id="3Zso1NhcMANWD2hy53oU-580" value="" style="ellipse;whiteSpace=wrap;html=1;dashed=1;fillColor=none;rotation=-105;" parent="1" vertex="1">
          <mxGeometry x="524" y="488.38" width="84.39" height="30" as="geometry" />
        </mxCell>
        <mxCell id="3Zso1NhcMANWD2hy53oU-581" value="&amp;nbsp; Stop bit (SDA &lt;br&gt;&amp;nbsp; goes high after SCL)" style="shape=note;size=20;whiteSpace=wrap;html=1;fontFamily=Computer Modern;align=left;shadow=1;" parent="1" vertex="1">
          <mxGeometry x="406" y="393" width="120.1" height="54" as="geometry" />
        </mxCell>
        <mxCell id="3Zso1NhcMANWD2hy53oU-582" value="" style="endArrow=none;dashed=1;html=1;rounded=0;exitX=0;exitY=0;exitDx=120.1;exitDy=37;exitPerimeter=0;entryX=1;entryY=0.5;entryDx=0;entryDy=0;" parent="1" source="3Zso1NhcMANWD2hy53oU-581" target="3Zso1NhcMANWD2hy53oU-580" edge="1">
          <mxGeometry width="50" height="50" relative="1" as="geometry">
            <mxPoint x="317" y="141.38" as="sourcePoint" />
            <mxPoint x="276" y="183.38" as="targetPoint" />
          </mxGeometry>
        </mxCell>
        <mxCell id="3Zso1NhcMANWD2hy53oU-583" value="" style="shape=flexArrow;endArrow=classic;html=1;rounded=0;" parent="1" edge="1">
          <mxGeometry width="50" height="50" relative="1" as="geometry">
            <mxPoint x="716" y="238.95" as="sourcePoint" />
            <mxPoint x="780" y="239" as="targetPoint" />
          </mxGeometry>
        </mxCell>
        <mxCell id="3Zso1NhcMANWD2hy53oU-584" value="" style="shape=flexArrow;endArrow=classic;html=1;rounded=0;" parent="1" edge="1">
          <mxGeometry width="50" height="50" relative="1" as="geometry">
            <mxPoint x="113" y="494.38" as="sourcePoint" />
            <mxPoint x="177" y="494.43" as="targetPoint" />
          </mxGeometry>
        </mxCell>
      </root>
    </mxGraphModel>
  </diagram>
</mxfile>
